<svg preserveAspectRatio="none" width="100%" height="100%" overflow="visible" style="display: block;" viewBox="0 0 142 142" fill="none" xmlns="http://www.w3.org/2000/svg">
<g id="Ellipse 8 [Vectorized]" clip-path="url(#clip0_0_122)">
<g id="Vector">
</g>
<path id="Vector_2" d="M58.9846 109.423C55.1244 108.719 48.7163 106.797 45.8639 103.946C43.1043 101.187 39.8063 99.1906 37.5328 96.1104C32.5857 89.4079 34.2533 79.6784 36.3503 72.2598C36.911 70.2678 37.4088 68.2586 37.8434 66.2352C39.7931 56.9627 40.2158 47.8823 46.7559 40.4581C48.8079 38.1287 48.9724 37.4317 51.7747 35.449C57.7438 31.2256 64.7892 28.2504 72.2242 29.6026C74.2602 29.9728 75.9453 30.9592 77.7593 31.9496C83.0475 31.2657 87.0895 33.2846 91.3699 36.2383C92.9454 37.3255 94.0891 38.911 95.3176 40.3445C101.793 47.5493 102.534 57.6674 104.379 66.7271C105.38 71.6429 107.201 76.146 107.615 81.2136C107.948 85.2831 107.834 89.9419 106.043 93.6955C103.978 98.0234 100.077 100.241 96.8102 103.477C94.5143 105.726 91.4634 107.064 88.422 107.994C87.6103 108.24 84.446 109.54 83.7438 109.129C84.0783 108.467 85.4402 107.198 86.0072 106.575C87.1436 105.328 88.8035 102.133 89.2302 100.551C86.8161 100.185 84.4756 99.5032 82.0937 99.179C81.9938 102.599 81.5712 106.008 82.5537 109.379L82.2269 109.653C82.2188 110.07 82.2287 110.421 82.2459 110.835C80.9842 107.654 80.5849 102.807 81.1225 99.4305C81.2732 98.9126 80.9872 98.6472 80.726 98.2439C81.2619 97.5024 83.0653 95.7857 83.827 94.8421C86.1907 91.9142 86.4333 88.921 87.429 85.4237C87.5466 85.0104 87.6806 84.5685 88.053 84.3671C88.1613 85.218 87.2404 86.1588 87.8298 86.9334C88.2825 87.0391 88.6686 86.7398 89.0974 86.5032C89.2994 86.1731 89.4966 85.84 89.6888 85.5041C90.178 84.6456 91.5087 81.6837 91.5004 80.6724C91.4738 77.4263 90.2791 73.4152 89.4959 70.2826C88.8454 67.6803 87.923 68.3521 86.2163 67.2296C82.138 64.5473 79.1615 60.6164 77.9576 55.9472C75.5595 60.9887 72.1962 65.0933 67.1408 67.7483C66.0698 68.3107 64.3168 68.7114 63.1868 69.1206C62.9129 69.0609 62.6664 68.9934 62.3961 68.9191C63.1306 68.3688 65.1027 65.731 65.6048 64.8957C65.527 64.9385 61.0722 68.2141 61.1626 68.107L61.2023 68.4362L61.0912 68.573C60.0925 68.5212 55.4083 71.6104 54.0116 71.8725C53.866 71.8998 52.3285 72.4483 52.095 72.5408C50.6536 78.1399 49.4075 80.8891 52.4666 86.099C52.5245 86.1979 52.5842 86.2956 52.6462 86.392C53.2653 86.7569 53.785 87.1533 54.5212 86.9187L54.8261 86.8141C55.3903 89.5623 56.6247 93.497 58.6467 95.4435C59.1162 95.8956 60.8994 97.6451 61.1709 98.0981C60.9008 98.5957 60.9295 98.7011 60.9883 99.2678C61.5136 103.942 61.2662 109.63 58.2956 113.508L58.1091 113.553C58.1268 113.248 58.2785 112.837 58.4072 112.551C60.4587 108.006 60.2611 104.121 60.0189 99.2386C57.3992 99.6461 55.3118 100.151 52.771 100.617C54.6586 104.834 55.4535 106.399 58.9846 109.423ZM54.2642 106.68C48.5819 99.3549 47.439 89.8029 48.5605 80.8415C48.918 78.0558 49.5129 75.3055 50.3387 72.6209C48.8291 72.6882 47.5302 72.7197 46.0253 72.5078C50.1144 71.576 53.3491 70.5072 57.0604 68.5251C57.8556 68.1004 59.4423 67.4363 60.1284 66.9285C62.788 64.9608 65.4491 62.5959 67.7683 60.2332C68.4243 59.5648 70.6896 56.6086 71.216 56.3931C71.6179 57.7787 67.8656 64.1086 67.1933 65.997C68.9557 64.1614 71.5387 62.5152 73.6137 60.1879C74.8992 58.2279 77.4161 53.4599 78.0226 51.3455C78.5037 53.8312 78.9455 54.3767 79.7087 56.4331C81.7042 61.8102 84.2918 63.2878 88.4706 66.8996C88.2287 66.243 86.625 61.4897 86.7436 61.1654C87.3522 61.4293 87.8707 63.0333 88.2039 63.6826C89.0004 65.2354 89.8624 66.7779 90.5519 68.3794C94.0421 78.07 95.5453 90.8352 91.3791 100.506C90.3816 102.821 89.1754 104.809 87.7817 106.821C92.4061 104.3 95.1536 100.937 97.2357 96.0647C97.5625 95.3002 97.5238 94.4466 98.0043 93.6713L98.1192 93.7135C98.3453 97.2979 94.6474 102.788 94.6685 102.889C95.5886 102.677 98.4348 99.4302 99.022 98.3823C101.898 93.2487 102.077 88.0239 101.385 82.4766C101.807 82.6928 101.964 82.8566 102.114 83.3866C103.007 86.5468 103.397 89.2175 103.007 92.508C102.893 93.4772 101.752 95.9407 101.968 96.3808C102.727 95.8004 102.808 95.1801 103.325 94.5075C106.189 90.7821 106.732 85.0882 105.923 80.5767C105.088 75.9205 103.359 71.2761 102.389 66.5833C101.226 61.5123 100.973 55.9565 99.3173 51.0343C98.338 48.123 96.1336 44.1028 94.2188 41.7125C89.518 35.8442 84.8365 33.2097 77.3301 33.8423C73.7485 31.586 71.7882 30.8578 67.4436 31.1124C55.7982 32.4195 46.6756 39.8686 42.7521 51.1063C41.0348 56.0248 40.897 61.6761 39.6561 66.7557C38.736 71.2778 36.8405 76.3508 36.1563 80.6377C35.8031 82.7372 35.7428 84.8755 35.977 86.9916C36.2993 89.702 37.8879 94.6054 40.1207 96.2908L40.3273 96.2606C40.3284 96.2297 39.5204 94.0564 39.3857 93.5792C38.6434 90.9488 38.8625 84.727 40.5504 82.5573L40.7102 82.5204C39.6873 87.1793 40.5392 94.2831 43.1024 98.3913C43.6224 99.2247 46.423 102.518 47.2763 102.677L47.3871 102.543C47.1831 101.987 46.2914 100.895 45.8908 100.299C45.1731 99.2312 43.311 94.501 44.0628 93.4797C44.4499 93.7932 44.708 95.7009 44.9714 96.2931C47.0651 101 49.6276 104.501 54.2642 106.68Z" fill="var(--fill-0, white)"/>
<path id="Vector_3" d="M60.2943 36.5377C62.8376 35.9593 65.373 35.366 67.9394 34.9113C69.3544 34.7882 69.3242 34.0509 70.1592 33.36C71.7985 32.0039 72.521 34.5244 72.9479 35.0248L72.8923 35.2192L72.6229 35.4054L72.0973 35.1116C71.696 35.2253 71.8463 35.1464 71.5258 35.4814C71.2366 36.5378 71.5846 39.2501 70.9896 39.7694C70.4384 39.3167 70.6415 36.2003 70.5977 35.3171C69.6283 35.9885 69.0611 36.4241 68.2178 37.2579C67.8564 37.6153 67.1029 38.4385 66.7393 38.6904L66.261 38.1958C66.8832 37.7002 68.9334 35.7981 69.2727 35.1431C69.3046 35.1543 60.6401 37.1838 59.8911 37.3868C61.4523 38.204 63.0637 38.9589 64.5884 39.7578C65.1718 40.2227 64.9664 39.9066 65.2869 40.0644C65.9938 40.5608 66.8077 40.6218 67.7064 41.3931L67.6656 41.5417C66.6626 41.6509 65.575 41.0151 64.6296 40.5841C64.07 41.1423 62.707 41.8929 62.3487 42.3763C60.2547 45.2013 58.0835 47.5772 55.5851 50.0467C56.8696 49.9875 60.5961 49.2302 61.5817 49.6461L61.3175 49.8087L61.4616 49.6248C60.7449 50.3096 56.8162 50.6445 55.5603 50.788C56.9346 51.7304 60.9503 54.6338 62.0953 55.6407C63.2298 54.9031 64.6254 54.5137 65.8087 53.8331C66.2072 53.6039 66.4098 53.5122 66.7514 53.8333C66.3372 54.7834 62.7572 55.3396 61.8253 56.9872C61.2121 58.0712 59.559 60.2111 58.7422 61.1417C60.0161 60.6717 60.6932 60.0742 61.7528 59.559C63.4317 58.7427 66.8127 56.7039 68.3702 56.1416L68.5003 56.2191C67.7384 57.903 60.9446 60.2406 59.4439 61.6055C58.4656 62.4954 59.4352 63.6537 56.7086 63.3646C56.0085 63.2903 54.7312 65.0176 54.2457 65.6749C54.2314 66.3399 54.0716 67.0852 53.9528 67.7475C53.0152 67.7443 51.9452 67.9011 51.3123 67.1256C51.0123 66.2951 51.2416 65.8687 51.5661 65.044C49.3952 61.414 48.2485 59.2438 46.4165 55.4198C45.2847 55.2107 44.5636 55.1753 44.2312 53.9109C44.2863 52.8605 45.1563 52.6138 46.0109 52.4309C46.8669 50.7411 47.7933 48.2904 48.2004 46.4515C48.3983 45.5579 47.7273 44.9232 47.9189 44.0298C48.2543 42.466 49.8857 43.3229 50.2583 43.1695C52.7405 42.1471 55.1946 39.3782 57.2404 38.1145C57.0149 35.7506 58.3897 35.0091 60.2943 36.5377ZM50.4412 51.887C52.0516 51.3618 53.1955 51.3836 53.7046 49.6623C52.7129 48.4689 51.4468 47.1929 50.234 46.2014C50.0081 46.0167 49.514 46.0251 49.2184 46.0248C48.7192 47.1769 46.7772 52.0458 47.0154 52.9847C47.4918 53.1374 49.8183 52.1322 50.4412 51.887ZM49.0826 56.4124C50.2906 57.4397 50.9365 57.302 51.8616 55.9743C52.3198 55.3168 53.9235 52.3248 53.8736 51.6859C53.5242 51.5213 53.677 51.5485 53.2922 51.5829C51.3215 52.3104 48.7459 53.0462 47.0597 54.169C47.7063 54.9645 48.3425 55.6994 49.0826 56.4124ZM55.1422 60.4227C55.5654 60.6631 56.0721 61.0158 56.5404 61.0116L56.7173 60.8868C56.7427 59.9864 55.0656 52.6726 54.6712 52.0999C53.8144 53.8273 51.7351 56.63 52.35 58.3967C52.6789 59.3421 54.2303 59.7784 55.1422 60.4227ZM51.6296 63.3009C51.5984 62.3348 51.1896 61.1571 50.9069 60.2049C49.3718 59.5625 49.4404 59.3964 49.4471 57.8202C48.9932 57.296 47.7786 55.7417 47.2282 55.5687C47.7267 56.5719 50.6561 62.8518 51.5176 63.3093L51.6296 63.3009ZM58.9274 38.623C58.4711 39.3456 57.8912 41.6479 57.4285 42.7252C58.1633 42.5205 58.7754 42.3655 59.5234 42.206C59.9673 42.127 61.0109 42.0165 61.278 41.7437C61.2867 40.9935 59.6035 38.8955 58.9274 38.623ZM60.3234 42.7475L57.3281 43.358C57.1078 44.0011 55.6707 48.3375 55.802 48.7025C56.0562 48.6362 55.9656 48.7071 56.1297 48.5444C56.8215 47.93 60.8352 43.5396 61.151 42.8943L61.0131 42.712C60.775 42.7127 60.557 42.7019 60.3234 42.7475ZM55.4837 51.7677C55.527 52.8228 57.3925 60.0288 57.8596 60.5545C58.6063 60.5086 59.3384 59.3223 59.7699 58.7481C60.2542 58.1393 61.4395 56.8319 61.4067 56.0754C60.9403 55.4112 56.0803 51.9246 55.4837 51.7677ZM62.0552 41.7688L63.0559 41.0703C63.3324 40.8389 63.7359 40.5779 63.8139 40.2607C63.3804 39.8899 60.4946 38.3267 59.9533 38.3758C60.9407 39.6914 61.3336 40.2882 62.0552 41.7688ZM56.3158 43.442L56.1862 43.495C54.6439 44.11 51.4797 44.1279 50.9159 44.9653C50.7309 45.8979 51.9628 46.9214 52.5767 47.5564C53.1737 48.1022 53.9703 48.8764 54.5768 49.3752C55.0373 48.3101 56.4224 44.6148 56.4132 43.5554L56.3158 43.442ZM56.7764 42.7215C57.013 41.9561 58.0419 39.2752 57.8446 38.7519L57.6005 38.6619C56.8069 39.2554 51.2951 43.3829 51.2251 43.7838L51.4564 43.9024C53.2253 43.489 54.9988 43.0955 56.7764 42.7215ZM54.8754 63.845C55.4023 63.3184 56.0319 62.8232 56.1731 62.1139C55.9251 61.2322 52.6231 59.7339 51.712 59.7034C51.6156 60.4247 52.5259 63.9657 52.8895 64.7331C53.7894 65.3541 54.3122 64.4712 54.8754 63.845Z" fill="var(--fill-0, white)"/>
<path id="Vector_4" d="M47.2282 55.5687C47.7786 55.7417 48.9932 57.296 49.4471 57.8202C49.4404 59.3964 49.3718 59.5625 50.9069 60.2049C51.1896 61.1571 51.5984 62.3348 51.6296 63.3009L51.5176 63.3093C50.6561 62.8518 47.7267 56.5719 47.2282 55.5687Z" fill="var(--fill-0, white)"/>
<path id="Vector_5" d="M72.9479 35.0248C74.9004 34.5534 79.1638 36.7302 81.3433 37.0871C82.3796 37.257 83.0148 36.0669 84.1161 36.7526C84.8073 37.1832 84.6495 38.3159 85.1735 38.932C85.9014 39.7877 91.0422 43.347 92.0645 43.1898C92.6207 43.1043 93.1055 42.9521 93.5992 43.3076C93.8186 43.4655 94.0159 43.6542 94.0671 43.9294C94.2373 44.8468 93.607 45.7467 93.8162 46.689C94.2434 48.6139 95.1247 50.4712 95.879 52.2887C96.9509 52.6067 97.9951 52.862 97.652 54.315C97.4816 55.0366 95.9177 55.2587 95.6871 55.6669C95.0557 56.7849 93.9623 59.0755 93.8739 60.3433C93.795 61.4773 94.5432 62.399 93.1784 63.212C91.9532 63.4851 91.2924 62.2368 90.9876 61.2848C89.4276 60.6028 87.7327 59.4393 86.1989 58.9917C86.1284 58.971 83.1424 60.1401 83.5147 57.7223C83.8249 57.4145 83.959 56.9722 84.1881 56.5497L84.6528 56.5315C85.2282 55.1841 85.6404 51.8713 85.8357 50.3075C85.5105 50.0013 85.1344 49.5476 84.7674 49.3024C83.8455 48.687 81.332 49.0261 80.5846 48.5446L80.5838 48.4113C81.3656 48.0637 84.2038 48.3374 85.232 48.3674C82.1521 46.1748 80.2845 43.1232 77.1156 40.9803L77.0577 41.0062C76.1273 41.4153 75.7732 41.6529 74.7483 41.5392L74.7184 41.3371C75.1183 40.9462 76.0578 40.6786 76.6198 40.4764C76.9885 40.5551 77.0869 40.3941 77.5009 40.1642L82.0236 38.1235C79.378 36.999 75.517 36.3566 72.8923 35.2192L72.9479 35.0248ZM88.8546 56.3775L90.4181 55.9341C89.182 54.3942 88.1217 52.8542 87.2817 51.0587C87.1195 50.7119 87.0852 50.3835 86.7861 50.1375C86.2865 50.9578 85.7048 55.2698 85.7783 56.418C85.8303 57.23 87.4179 56.8537 87.9414 56.6843C88.2468 56.5849 88.5512 56.4827 88.8546 56.3775ZM91.0923 44.2115C91.0599 44.1155 91.0171 43.9899 90.9645 43.8343C88.9306 42.3229 86.7298 40.9054 84.6199 39.5001C84.4338 39.3762 84.0544 39.3509 83.9149 39.3481C84.2283 40.7103 84.7241 41.9697 85.0502 43.3956C87.0669 43.6468 89.0812 43.9189 91.0923 44.2115ZM89.1987 49.932C89.8415 50.2533 90.7714 50.6869 91.3727 51.0369C91.4228 49.9833 92.1487 46.461 91.8124 45.9739L91.5635 45.8532C90.6121 46.3808 88.2465 47.85 87.5906 48.65C87.5049 49.283 88.6668 49.6574 89.1987 49.932ZM82.8327 39.4523C82.2543 40.3616 81.0159 42.1514 80.5824 42.9813C81.0838 43.0069 81.8795 43.0231 82.3513 43.1027L84.4742 43.3669C84.1028 42.4508 83.4039 39.7252 82.8327 39.4523ZM91.8983 51.4272C92.9939 51.8132 93.6986 52.1324 94.6406 52.8549L95.025 52.758C95.181 52.2341 93.3421 47.3074 93.0509 46.388L92.813 46.2285C92.3915 48.0727 92.2599 49.7331 91.8983 51.4272ZM89.7763 46.1456C90.2375 45.8757 90.692 45.5946 91.1395 45.3026C91.0919 45.1431 91.0954 45.023 90.9796 44.9774C89.3262 44.3255 87.1513 44.5983 85.4316 44.0702C85.6528 47.8339 86.9401 48.4266 89.7763 46.1456ZM85.4531 47.744C85.4883 46.8802 84.8768 44.9797 84.6216 44.061C83.5262 43.9307 82.4293 43.8146 81.3309 43.7131C81.3453 43.7987 81.3627 43.9009 81.3828 44.0199C82.5414 45.0058 84.3639 46.8442 85.4531 47.744ZM77.6664 40.7351L79.4724 41.9016L80.301 42.6374C80.6008 41.9173 82.0175 39.4442 81.9965 39.0697L81.7548 38.9549C80.3945 39.6234 79.1115 40.2483 77.6664 40.7351ZM91.2064 55.7042C91.9885 55.3329 92.7597 54.9548 93.565 54.6359C93.9777 54.5213 94.3755 54.4686 94.6047 54.112C94.568 53.1851 92.6092 52.3363 91.8178 52.0089C91.7205 53.256 91.5634 54.5007 91.2064 55.7042ZM87.3355 49.997C87.8344 50.8987 89.8599 54.4448 90.5817 54.8431C90.8051 54.735 90.7462 54.8189 90.8176 54.6319C90.9421 53.6725 91.035 52.6796 91.3089 51.7553C90.4462 51.3129 88.0927 49.9808 87.3355 49.997ZM86.0931 57.9135C87.1629 58.5351 88.4287 59.3141 89.5341 59.8242C90.0933 60.11 90.7933 60.5448 91.3977 60.5484L91.6528 60.3913C91.7498 59.9454 90.9581 57.5974 90.8047 56.8553L90.555 56.6662L90.1334 56.7418C88.7818 57.1155 87.4348 57.5061 86.0931 57.9135ZM92.4934 60.0588L92.7636 60.2472C93.5296 59.8341 94.7215 56.0871 95.0188 55.1157C94.8815 54.8174 94.9647 54.8874 94.7146 54.7445C93.7139 55.2366 92.4175 55.9347 91.3651 56.2C91.6478 57.5118 92.025 58.8013 92.4934 60.0588Z" fill="var(--fill-0, white)"/>
<path id="Vector_6" d="M70.85 41.0695C72.296 41.2423 72.7776 41.5486 72.7966 43.1012C72.8233 45.2726 72.7793 47.4446 72.7517 49.6162L73.7177 50.7416C74.0884 53.0401 73.5747 54.3064 71.2059 54.7493C67.8533 54.607 67.4849 51.9433 69.2272 49.5563C69.2415 47.6583 69.0683 43.5866 69.5283 41.7515C69.6215 41.38 70.4536 41.1797 70.85 41.0695ZM69.8621 49.7843C69.1405 50.7362 68.7383 51.1692 68.8678 52.4482C69.0016 53.7699 70.3787 54.2949 71.5501 54.1228C73.7184 53.2888 73.7216 51.6263 72.2242 50.0962C72.177 48.9406 72.3225 42.396 71.8756 41.8775C71.3543 41.5271 70.8402 41.5881 70.2012 41.6013C69.6113 42.784 69.9504 48.0725 69.8621 49.7843Z" fill="var(--fill-0, white)"/>
<path id="Vector_7" d="M70.8911 45.1123L71.132 45.2154C71.6376 45.7517 71.3543 49.0875 71.5928 50.4459C72.9328 51.7017 72.927 52.8675 71.0664 53.5049C68.9041 52.9714 69.1139 51.7207 70.4486 50.3721C70.6765 48.9211 70.3351 46.0403 70.8911 45.1123Z" fill="var(--fill-0, white)"/>
<path id="Vector_8" d="M65.2193 43.7511C65.8289 43.8952 67.3669 45.339 67.6369 45.8835L67.4725 46.0151C66.639 45.9416 66.3252 45.219 65.7212 45.4408C65.6158 45.7022 65.7251 48.0719 65.6807 48.79L65.3484 48.8567C64.8575 48.3717 65.1041 45.5593 65.1367 44.8088L64.9199 45.0435C64.3937 45.6084 64.1492 46.0148 63.4016 46.042L63.2647 45.8462C63.4221 45.4332 64.8219 44.1426 65.2193 43.7511Z" fill="var(--fill-0, white)"/>
<path id="Vector_9" d="M76.251 47.7329C76.5176 47.8084 76.5297 47.8365 76.7384 48.0311C76.9461 48.8088 76.7389 49.599 76.6194 50.4186C76.9845 50.0183 77.82 48.9539 78.381 49.0872C78.2109 50.0164 77.229 50.7502 76.5356 51.3747C75.9112 51.1802 74.7351 49.7761 74.5608 49.0627L74.7258 48.9667C75.3135 49.1961 75.6773 49.6893 76.0992 50.1619C76.1332 49.3225 76.1689 48.5701 76.251 47.7329Z" fill="var(--fill-0, white)"/>
<path id="Vector_10" d="M71.5258 35.4814C71.8463 35.1464 71.696 35.2253 72.0973 35.1116L72.6229 35.4054C73.7518 36.4663 76.4178 39.6095 77.5009 40.1642C77.0869 40.3941 76.9885 40.5551 76.6198 40.4764C76.2974 39.9466 72.2005 36.0337 71.5258 35.4814Z" fill="var(--fill-0, white)"/>
<path id="Vector_11" d="M83.5147 57.7223C83.5366 57.5933 83.5523 57.4634 83.5615 57.3329C83.6509 55.9499 79.7871 54.1173 79.9087 52.7874C80.636 52.6307 80.7947 53.2874 81.2178 53.6657C82.095 54.4499 83.608 56.1204 84.6528 56.5315L84.1881 56.5497C83.959 56.9722 83.8249 57.4145 83.5147 57.7223Z" fill="var(--fill-0, white)"/>
<path id="Vector_12" d="M64.5884 39.7578C64.9406 39.5111 65.8488 38.5612 66.261 38.1958L66.7393 38.6904C66.4039 39.012 65.4926 39.7844 65.2869 40.0644C64.9664 39.9066 65.1718 40.2227 64.5884 39.7578Z" fill="var(--fill-0, white)"/>
<path id="Vector_13" d="M74.2473 44.3833C74.9381 44.4101 75.4645 44.6974 75.8021 45.3002C75.1521 45.4229 74.5442 44.9251 74.2473 44.3833Z" fill="var(--fill-0, white)"/>
<path id="Vector_14" d="M77.7998 46.0237C78.2945 46.5284 78.8481 46.6505 79.1056 47.164C78.6261 47.098 78.3453 47.0907 77.929 46.841C77.6654 46.4061 77.7175 46.6115 77.7998 46.0237Z" fill="var(--fill-0, white)"/>
<path id="Vector_15" d="M73.5392 73.1708C73.7026 73.59 73.4093 74.3787 73.3272 74.9617C73.1203 76.4307 73.3398 78.4751 72.9999 79.8449C72.4192 77.8368 72.7055 75.1251 73.5392 73.1708Z" fill="var(--fill-0, white)"/>
<path id="Vector_16" d="M79.5824 67.8528C80.2763 67.7881 81.6176 67.7517 82.1966 68.1213C81.5259 68.1443 79.7326 68.1331 79.2056 68.3805C78.6407 68.5798 77.6937 68.9772 77.1355 68.9531L77.3573 68.9296L77.4452 68.6901C78.1707 68.2738 78.7916 68.1066 79.5824 67.8528Z" fill="var(--fill-0, white)"/>
<path id="Vector_17" d="M68.7085 86.0942C69.4684 86.0979 70.565 86.862 71.2142 87.2769C71.7445 86.8961 72.5363 86.3287 73.1487 86.1611L73.401 86.3324C72.8636 86.5849 71.7379 87.3276 71.1836 87.6749C70.4775 87.2808 69.2246 86.6479 68.7085 86.0942Z" fill="var(--fill-0, white)"/>
<path id="Vector_18" d="M61.1709 98.0981C63.4905 100.687 69.7881 103.959 73.3674 102.672C75.0316 102.073 79.6424 99.5571 80.726 98.2439C80.9872 98.6472 81.2732 98.9126 81.1225 99.4305C81.0414 99.4087 80.9604 99.387 80.8794 99.365C72.7839 104.6 71.0205 106.557 60.9883 99.2678C60.9295 98.7011 60.9008 98.5957 61.1709 98.0981Z" fill="var(--fill-0, white)"/>
<path id="Vector_19" d="M61.2023 68.4362C61.6022 68.6146 61.9755 68.7962 62.3961 68.9191C62.6664 68.9934 62.9129 69.0609 63.1868 69.1206C63.4456 69.4677 65.2611 70.8581 65.8981 71.4851L65.7779 71.5042C64.7953 70.8688 61.4965 69.105 61.0912 68.573L61.2023 68.4362Z" fill="var(--fill-0, white)"/>
<path id="Vector_20" d="M82.2459 110.835C82.2287 110.421 82.2188 110.07 82.2269 109.653L82.5537 109.379C82.8777 110.542 83.7725 112.668 83.9084 113.42L83.7785 113.433C83.0489 112.544 82.6766 111.925 82.2459 110.835Z" fill="var(--fill-0, white)"/>
<path id="Vector_21" d="M54.5212 86.9187C54.2949 85.9807 54.0912 85.5113 54.1442 84.5646C54.614 85.1634 54.7581 86.0833 54.8261 86.8141L54.5212 86.9187Z" fill="var(--fill-0, white)"/>
</g>
<defs>
<clipPath id="clip0_0_122">
<rect width="142" height="142" fill="white"/>
</clipPath>
</defs>
</svg>
