<svg preserveAspectRatio="none" width="100%" height="100%" overflow="visible" style="display: block;" viewBox="0 0 142 142" fill="none" xmlns="http://www.w3.org/2000/svg">
<g id="Ellipse 7 [Vectorized]" clip-path="url(#clip0_0_47)">
<g id="Vector">
</g>
<path id="Vector_2" d="M74.1438 71.7877C74.36 72.4832 73.1501 75.2988 73.167 76.2758C73.1899 77.5951 73.0889 79.6986 73.4478 80.9185L73.3218 81.1375C73.1519 80.9806 72.9321 80.6998 72.8839 80.4803C72.1969 77.3605 72.6254 74.4877 74.1438 71.7877Z" fill="var(--fill-0, white)"/>
<path id="Vector_3" d="M80.5922 67.7157C82.2815 67.5762 83.7212 68.1572 85.2498 68.771C82.6965 68.7089 82.4535 67.9825 79.2323 68.5463C78.2922 68.7926 76.8471 69.6769 76.2912 69.7538L76.212 69.5779C76.7151 68.4695 79.4638 67.8702 80.5922 67.7157Z" fill="var(--fill-0, white)"/>
<path id="Vector_4" d="M71.1471 86.9665C72.2149 86.6197 72.9825 85.9648 73.9519 85.6555L74.0975 85.8339C72.9252 86.7904 72.5566 87.1604 71.0742 87.5491C70.9275 87.5063 70.7821 87.4592 70.6382 87.4082C69.8652 87.1318 68.4017 86.3342 68.0549 85.5859C68.7495 85.7111 70.1341 86.5995 71.1471 86.9665Z" fill="var(--fill-0, white)"/>
<path id="Vector_5" d="M69.1075 64.7402C70.3212 63.5492 71.5532 62.3603 72.6907 61.0961C72.9942 60.7587 73.4492 60.24 73.6757 59.8461C75.2052 57.1838 76.719 54.3196 77.5348 51.3481C78.1241 49.2011 78.3632 47.0078 78.9065 44.8531C78.9312 44.749 78.9019 44.7833 79.0298 44.7816C79.3508 46.1967 79.072 48.7074 79.2174 50.3649C79.7467 56.3958 80.8149 59.7518 84.907 64.1529C88.8951 68.4423 91.2813 67.823 95.6674 70.493C94.5029 70.3471 91.8863 69.3047 91.2081 69.556C91.6571 70.9639 97.4881 74.294 99.1152 74.8857C100.591 75.4227 103.789 79.7323 103.718 81.2463L103.582 81.3822C101.805 78.5571 100.764 76.2016 97.4586 74.8678C96.1422 74.3366 95.1094 73.8299 93.9175 73.0938C93.2955 72.7097 91.052 70.758 90.7689 70.6969C90.6689 70.9956 90.6773 70.7978 90.7524 71.0433C93.5017 80.0214 94.5444 90.1199 91.1743 99.0801C89.9427 102.354 88.1538 104.346 86.7957 107.153C87.954 106.133 89.052 105.386 90.2005 104.427C93.2304 101.897 95.3157 98.8466 96.8898 95.2641C97.1502 94.671 98.1044 92.0482 98.5497 91.9446C98.3512 95.2918 94.6427 101.717 91.9981 104.001C91.3016 104.602 88.9136 106.331 88.5867 106.838C89.011 107.011 89.8397 106.587 90.3049 106.413C93.6222 105.175 98.9621 100.801 100.378 97.5913C102.02 93.8717 102.819 90.8114 102.254 86.6671C102.095 85.5317 101.87 84.4068 101.578 83.298C101.469 82.8742 100.889 81.2875 101.22 81.0243C102.335 82.1516 103.289 87.9198 103.275 89.8079C103.271 91.7314 102.936 93.6401 102.284 95.4497C102.119 95.9211 101.405 97.4654 101.461 97.7339C102.338 97.437 103.697 95.0564 104.365 94.3277C104.554 94.6546 104.519 94.7152 104.481 95.1131C104.691 95.3372 104.698 95.3513 104.976 95.467C102.584 98.9101 99.0548 101.488 95.9534 104.319C92.6804 107.307 87.0484 108.579 82.8022 109.658C84.0659 108.313 85.7869 106.617 86.7657 105.117C87.3392 104.239 88.0347 102.706 88.5529 101.732C85.8103 99.9257 85.062 100.412 82.2384 99.6059C81.92 103.135 81.8706 106.222 82.7456 109.692L82.564 109.965L82.4503 109.892C82.1491 110.302 82.2452 110.888 82.2674 111.413C81.1906 108.702 80.6775 105.8 80.7592 102.884C80.7879 102.063 81.0043 100.425 80.8931 99.7278L80.6506 99.7083C80.2107 100.247 76.0535 102.693 75.2815 103.09C71.2864 105.147 67.9638 103.989 64.4295 101.718C63.744 101.278 62.0734 100.085 61.3518 99.8383C60.9796 100.049 61.144 100.915 61.1769 101.338C61.4591 104.971 61.1331 108.645 59.6521 112.008C59.3891 112.605 58.2877 114.083 57.6406 114.308C57.5705 114.018 57.7925 113.539 57.9361 113.274C60.2823 108.955 60.1477 104.332 59.8977 99.5922C57.1468 100.371 56.2531 100.075 53.605 101.727C54.0836 102.643 54.6774 104.052 55.1735 104.824C56.1796 106.388 57.8683 108.018 59.1673 109.458C50.3806 108.347 46.1158 104.564 39.9382 98.7851C34.313 93.5232 34.183 88.3834 34.1688 81.322C32.5208 87.0662 33.4759 89.4696 35.2428 94.8923C29.9782 91.1325 29.2012 83.5492 31.9406 78.0398C32.6582 76.5962 33.5496 74.6716 34.7008 73.5387C35.093 73.489 35.2648 73.2677 35.5664 72.9942L35.7461 73.2182C33.0132 78.3112 29.6457 83.8812 32.5836 89.6479C31.7554 84.4743 32.6859 80.789 35.5384 76.225C35.6535 76.0409 35.8385 75.8797 36.0231 75.7634C36.1347 75.8764 36.1989 75.8935 36.158 76.0722C34.2381 84.4625 34.1902 91.3103 40.7842 98.032C40.9132 98.164 41.0445 98.2938 41.1781 98.4211C38.6619 92.6079 38.121 88.7869 40.3686 82.5159C40.6754 81.6598 41.0517 80.9681 41.5802 80.2146C39.7406 86.7613 38.5587 91.7176 42.1295 98.2056C43.7474 101.145 50.5026 106.851 53.9499 107.095C54.3732 107.137 54.5469 106.857 54.7483 106.567C54.8512 106.371 54.7786 106.136 54.6744 105.955C52.9801 103.019 51.1597 100.248 50.1848 96.9565C48.3259 90.6809 48.3843 84.0657 49.6929 77.6881C50.0492 75.952 50.3967 74.0771 51.2939 72.5061C47.7074 73.3757 43.4764 74.0695 39.8413 73.0382C41.2118 72.8725 42.8521 72.9263 44.2882 72.7871C47.4165 72.4837 50.198 71.799 53.1578 70.7774L53.3982 70.9723C53.382 71.302 53.5936 71.503 53.8021 71.7377L52.3708 72.2996C51.632 74.7561 50.6285 77.8234 50.5882 80.3992C50.5724 81.4086 51.6587 83.9556 52.1128 84.9175C52.5679 85.882 53.2259 86.6206 54.3071 86.8656C54.4797 86.5068 54.5507 86.4336 54.8141 86.1319C56.2172 92.0796 57.2096 94.2178 61.731 98.4838C63.724 100.313 68.6806 103.231 71.4572 102.866C77.0665 102.127 82.7684 97.066 85.3494 92.1613C86.1763 90.5898 87.3211 84.5957 87.9303 83.9499C88.0982 84.5739 87.8398 85.8377 88.0487 86.7617C89.7845 86.5794 91.4154 81.5807 91.3896 80.1139C91.325 76.4348 89.8769 71.9309 88.7654 68.4828C82.2367 64.4722 80.4578 61.1334 78.5076 54.0542C78.1431 56.1403 77.7055 58.1852 76.8352 60.1295C74.8662 64.5285 71.9041 68.2457 67.2732 70.0268C68.4925 68.9445 69.9907 67.971 71.1885 66.8758C74.3736 63.963 76.2258 59.4904 77.3349 55.408C76.9156 55.995 75.9485 57.8475 75.5745 58.5842C74.2301 61.2328 72.0416 63.8818 69.6593 65.6722L69.5814 65.5061L69.8847 64.9947L69.8092 64.7287C69.3398 64.8779 69.5212 64.888 69.1075 64.7402Z" fill="var(--fill-0, white)"/>
<path id="Vector_6" d="M34.7008 73.5387C33.9139 72.9965 30.7282 75.2123 30.2192 75.9835C29.9702 76.3609 29.2015 77.6041 29.0638 77.6705L28.9529 77.4654C28.9998 76.8264 29.2674 76.5539 29.5027 76.0454C30.7124 73.3164 34.6168 72.7625 35.965 70.3688C39.1898 64.6429 39.3376 57.8161 41.3 51.6715C41.5921 50.7564 42.2511 47.63 43.1085 47.2728C44.053 47.9118 43.2907 49.3618 42.9019 50.2515C41.4865 53.6064 41.1732 57.3171 40.432 60.8817C39.9048 63.4176 39.0325 65.7597 38.4527 68.2169C41.7411 64.4288 41.3747 61.5254 43.3302 57.8819C42.9072 60.4245 41.8227 64.7456 40.4023 66.9143C39.622 68.1056 38.0025 69.844 36.9952 70.9359C40.3964 69.8132 45.0593 68.0782 47.5929 65.4365C49.3729 63.5805 51.1461 61.1708 52.9512 59.2865C51.8527 61.6387 50.1888 63.6722 48.5199 65.6342C46.2199 68.3382 42.7943 69.4405 39.8451 71.1244C43.7122 70.6185 49.3755 68.6115 52.8424 66.9712C53.9798 66.433 56.2274 64.2214 57.4502 63.9921C53.0381 68.1274 48.2269 70.253 42.3247 71.4715C40.9276 71.7599 36.4184 72.2769 35.7461 73.2182L35.5664 72.9942C35.2648 73.2677 35.093 73.489 34.7008 73.5387Z" fill="var(--fill-0, white)"/>
<path id="Vector_7" d="M90.4213 61.047C91.5906 62.0985 93.317 65.661 94.7042 66.923C98.341 70.2315 102.955 71.9353 107.042 74.4395C107.706 74.735 107.789 74.9075 108.449 74.421C113.296 81.2083 113.683 89.686 106.798 95.1948C108.905 90.7754 109.535 87.2049 108.596 82.3556C108.331 81.5639 108.196 81.1475 107.801 80.399C107.888 81.2637 107.967 81.7808 108.147 82.6301C108.155 84.8221 107.766 92.0656 106.237 93.4865C106.117 93.1086 106.367 92.4821 106.405 91.9015L106.07 91.9675L105.821 91.6747C107.163 88.3325 107.591 83.1999 106.855 79.7415C107.537 79.0579 106.721 78.6124 107.529 77.6465C107.869 78.0174 108.278 78.7888 108.523 79.2513C110.292 82.5945 110.173 85.6174 110.065 89.2356C111.222 84.7199 111.344 81.5902 108.532 77.4799C107.908 76.6402 106.853 75.2284 105.932 74.735C98.5809 70.8002 93.9466 69.1604 90.4213 61.047Z" fill="var(--fill-0, white)"/>
<path id="Vector_8" d="M73.7048 50.2586C72.6714 55.6652 68.8209 63.8601 64.7628 67.7121C67.2155 66.725 67.1789 66.1032 69.1075 64.7402C69.5212 64.888 69.3398 64.8779 69.8092 64.7287L69.8847 64.9947L69.5814 65.5061L69.6593 65.6722C67.5112 67.8003 62.9642 69.4474 60.0607 70.6826C62.782 67.8753 65.747 66.3308 67.5856 62.7601C67.941 62.0699 68.3243 61.6237 68.5975 60.8207L68.5192 60.6744C67.9168 61.1237 67.7857 61.6789 67.3116 62.191C63.9674 65.802 58.4987 70.0746 53.8021 71.7377C53.5936 71.503 53.382 71.302 53.3982 70.9723L53.1578 70.7774C55.3191 69.8944 58.4361 68.0473 60.5871 66.926C60.9129 66.7562 62.0455 65.5318 62.4453 65.2331C66.2614 62.3806 68.5723 59.2718 71.0312 55.2628C72.0776 53.5567 72.7079 51.9412 73.7048 50.2586Z" fill="var(--fill-0, white)"/>
<path id="Vector_9" d="M90.5448 35.723C93.0774 37.6146 95.6058 40.654 97.4094 43.259C100.487 47.7044 101.736 53.8095 102.882 59.0236C103.52 62.0313 104.086 65.6961 105.552 68.4009C105.068 68.7958 104.962 68.8693 104.774 69.4539C101.852 64.2783 101.733 56.6341 99.8393 50.9992C98.3719 46.633 95.733 42.5606 92.7042 39.1055C91.9691 38.2666 90.5773 37.1958 89.6913 36.4427C89.8414 36.3929 90.3249 35.9017 90.5448 35.723Z" fill="var(--fill-0, white)"/>
<path id="Vector_10" d="M52.2058 35.4018C53.9888 34.6756 53.6992 34.4618 55.0398 33.6698C61.2071 30.0266 66.4737 28.3929 73.4359 29.7435L72.8435 29.8759L73.0437 30.2955C72.7539 30.5604 72.5433 30.6006 72.1772 30.7185C66.358 29.4369 60.3013 32.0249 55.3157 34.7925C54.8608 35.0449 54.329 35.2661 53.9997 35.6751L54.0838 35.8618C55.6343 36.7109 60.1697 36.5847 62.168 36.9597C56.2346 38.1492 42.7725 34.6868 38.6641 30.0903C40.3176 30.6977 41.5777 31.5534 43.1433 32.3104C46.5485 33.9569 48.5314 34.709 52.2058 35.4018Z" fill="var(--fill-0, white)"/>
<path id="Vector_11" d="M115.949 105.127C117.863 104.995 118.691 105.368 119.959 106.735C120.434 108.696 120.604 110.816 118.807 112.173C118.106 112.702 116.971 113.115 116.096 113.172C113.675 113.33 111.217 113.175 108.789 113.213C104.992 113.187 101.123 113.257 97.3441 112.962C97.1987 112.951 97.2338 112.915 97.0971 112.732L97.2463 112.541C98.0152 112.288 99.7461 112.301 100.641 112.263C103.581 112.022 107.254 112.187 110.266 112.075C112.392 111.954 114.733 112.364 116.796 111.817C120.895 110.73 119.783 105.252 115.638 106.254C114.086 106.629 113.755 108.651 113.169 109.954C113.237 108.274 113.273 107.765 113.91 106.224C114.733 105.64 114.994 105.464 115.949 105.127Z" fill="var(--fill-0, white)"/>
<path id="Vector_12" d="M119.861 39.6778C121.604 39.5337 123.021 40.2419 124.019 41.6703C125.282 43.4797 124.124 46.6266 122.306 47.6051C119.953 48.8717 116.658 47.6857 114.133 48.4791C113.501 48.6777 111.155 49.7732 110.683 49.653L110.676 49.488C111.179 48.9169 112.719 48.1031 113.462 48.0246C114.227 47.8264 115.116 47.5923 115.872 47.5442C118.83 47.3512 122.857 47.8319 123.359 43.8532C123.555 42.302 122.991 41.4898 121.525 40.9325C120.196 40.4274 118.752 40.8057 118.088 42.1449C117.607 43.1164 118.187 43.5237 117.926 44.266L117.762 44.3245C117.158 43.7901 117.007 42.5024 117.344 41.7834C117.871 40.6576 118.732 40.1199 119.861 39.6778Z" fill="var(--fill-0, white)"/>
<path id="Vector_13" d="M73.4359 29.7435C75.1277 30.3915 76.2281 30.9991 77.7914 31.9252C81.5841 31.5402 85.049 32.3624 88.2896 34.3537C89.0197 34.8025 89.8913 35.1747 90.5448 35.723C90.3249 35.9017 89.8413 36.3929 89.6913 36.4427C85.4317 33.5845 82.4335 32.8236 77.4699 33.1975C75.1382 31.8381 74.9688 31.392 72.1772 30.7185C72.5433 30.6006 72.7539 30.5604 73.0437 30.2955L72.8435 29.8759L73.4359 29.7435Z" fill="var(--fill-0, white)"/>
<path id="Vector_14" d="M107.042 74.4395C107.025 74.0949 107.064 73.9229 106.798 73.6628C104.804 71.7142 102.861 69.6148 101.359 67.2441C100.289 65.5569 98.8811 60.8568 99.338 58.9367C99.8996 60.7307 100.242 62.8602 100.936 64.5762C101.76 66.6167 103.789 69.4498 105.355 71.0007L104.774 69.454C104.962 68.8693 105.068 68.7958 105.552 68.4009C106.363 70.2178 107.34 72.9081 108.449 74.421C107.789 74.9075 107.706 74.735 107.042 74.4395Z" fill="var(--fill-0, white)"/>
<path id="Vector_15" d="M35.4908 36.1778C37.4461 36.2336 46.2167 42.8394 47.7191 44.5772C49.415 46.5391 53.927 51.7349 53.7799 54.2612C53.4293 54.077 53.0162 53.0532 52.8148 52.6317C51.3783 49.6254 48.797 46.9689 46.5868 44.4931C44.902 42.6058 41.9839 41.1446 40.1049 39.4619C39.1534 38.6097 36.0182 37.0412 35.4908 36.1778Z" fill="var(--fill-0, white)"/>
<path id="Vector_16" d="M38.0101 32.3147C39.0876 32.543 41.2351 34.1466 42.3297 34.6167C46.391 36.361 50.258 38.4916 54.5623 39.6281C56.7849 40.215 59.2395 40.4384 61.5114 40.7404L61.6559 40.9799C55.0335 41.7364 46.9482 37.9161 41.3539 34.7341C40.5482 34.2758 38.2282 33.0811 38.0101 32.3147Z" fill="var(--fill-0, white)"/>
<path id="Vector_17" d="M37.4679 34.9295C39.0508 34.9373 40.9183 36.3508 42.2798 37.1789L48.2599 40.8945C50.988 42.6053 53.7785 44.0093 56.3234 46.0704C57.2124 46.7903 58.2885 47.3417 59.1567 48.1341C57.9162 48.076 54.0173 45.1108 52.748 44.4346C47.4646 41.6201 42.5681 37.9649 37.4679 34.9295Z" fill="var(--fill-0, white)"/>
<path id="Vector_18" d="M53.9499 107.095C53.694 106.622 51.8021 105.416 51.171 104.878C49.0059 103.033 47.2086 100.579 45.824 98.1248C44.9768 96.6235 42.9654 91.3709 43.5039 89.6828C43.8584 90.1625 44.459 92.9421 44.7803 93.802C46.9334 99.5653 49.8183 102.963 54.7484 106.567C54.5469 106.857 54.3732 107.137 53.9499 107.095Z" fill="var(--fill-0, white)"/>
<path id="Vector_19" d="M105.843 96.6023L106.026 96.8666C106.006 96.9526 105.98 97.037 105.949 97.1195C105.105 99.3663 99.7036 104.683 97.6358 106.09C95.3217 107.664 91.6363 109.042 89.0807 110.287C88.9863 110.19 89.0061 110.176 88.9566 110.03C89.2183 109.703 91.263 108.752 91.8268 108.478C97.0003 105.961 102.49 101.331 105.843 96.6023Z" fill="var(--fill-0, white)"/>
<path id="Vector_20" d="M33.0897 98.6071C33.9588 98.5122 35.4908 98.6472 35.5067 99.766L35.3534 99.8243C33.9926 98.7903 31.9058 99.2516 31.3203 100.878C31.136 101.375 31.1673 101.926 31.4065 102.398C32.9738 105.527 38.2152 102.703 40.2835 101.634C40.6346 101.498 41.0387 101.433 41.3203 101.703C40.7816 103.122 32.888 106.337 31.2351 103.749C29.621 101.223 30.3991 99.3846 33.0897 98.6071Z" fill="var(--fill-0, white)"/>
<path id="Vector_21" d="M82.6796 40.4817C84.8938 40.5025 87.376 43.4607 88.7618 44.8943C92.9759 49.2542 93.9161 53.2461 95.3011 58.8272C95.0694 58.679 94.7464 58.3198 94.6804 58.0213C93.3277 51.9032 89.9894 46.9736 85.6744 42.5628C84.9401 41.8123 83.468 41.3223 82.6796 40.4817Z" fill="var(--fill-0, white)"/>
<path id="Vector_22" d="M34.4636 37.8399C35.4268 38.1934 38.7331 40.5525 39.6995 41.1926C42.4963 43.0456 47.2268 49.2845 47.1039 52.7541C46.8597 52.7322 46.9819 52.7687 46.7575 52.5659C46.2931 49.8423 42.2529 44.6245 40.2623 42.5578C39.1894 41.444 34.7845 39.3827 34.4636 37.8399Z" fill="var(--fill-0, white)"/>
<path id="Vector_23" d="M48.1764 75.127C48.4929 75.4496 46.9309 81.7724 46.8019 82.6601C46.3321 85.8954 46.4286 88.7266 47.0566 91.9458C47.3024 93.2054 47.9522 94.8452 48.0408 95.8529L47.8181 96.1036C46.8015 94.6831 46.0613 91.1261 45.8735 89.4692C45.3675 85.0016 45.9801 80.8531 47.7421 76.7255C48.0046 76.1106 47.6536 75.7935 48.1764 75.127Z" fill="var(--fill-0, white)"/>
<path id="Vector_24" d="M81.2713 47.925C81.5884 48.3762 81.5662 49.6441 81.6673 50.2692C82.5803 55.9111 85.8455 62.1208 90.2959 65.6695L90.3223 65.9877C85.6903 64.0593 79.4673 52.6769 81.2713 47.925Z" fill="var(--fill-0, white)"/>
<path id="Vector_25" d="M114.395 117.259C114.022 115.36 113.564 115.321 111.95 115.152C110.443 114.994 102.679 115.344 101.889 114.602L102.095 114.412C104.314 114.009 109.531 114.118 111.966 114.057C113.017 114.03 114.089 114.479 114.807 115.323C114.611 116.051 114.403 116.514 114.395 117.259Z" fill="var(--fill-0, white)"/>
<path id="Vector_26" d="M94.0434 95.4182C95.4266 91.1906 95.6076 87.0649 95.0013 82.6479C94.9215 82.0663 93.9843 78.726 94.083 78.4396C94.4887 78.6228 94.7445 79.2467 94.8908 79.682C96.7283 85.1461 96.6578 90.7004 94.3869 95.9554L94.0434 95.4182Z" fill="var(--fill-0, white)"/>
<path id="Vector_27" d="M107.265 27.7055C107.508 28.0041 107.641 29.357 107.717 29.8429C109.199 30.6949 109.575 30.6228 111.286 30.8111C110.226 31.1572 108.887 31.1711 108.075 31.8124C107.337 32.3957 107.506 33.4936 107.444 34.4048L107.291 34.429C107.019 33.5548 106.723 32.6881 106.405 31.8299C105.407 31.3376 103.974 31.0435 102.89 30.8004C104.445 30.5281 104.94 30.7624 106.406 29.8979C106.692 29.3209 107.029 28.3336 107.265 27.7055Z" fill="var(--fill-0, white)"/>
<path id="Vector_28" d="M115.091 43.8199C115.157 43.8973 115.158 43.9731 115.188 44.0884C114.158 45.2915 112.559 46.7532 111.309 47.7071C108.753 49.6595 106.232 51.8432 103.901 54.0662C103.728 53.6761 103.604 53.481 103.647 53.048C104.971 51.4216 109.634 48.0018 111.461 46.7493C112.694 45.9047 113.893 44.7637 115.091 43.8199Z" fill="var(--fill-0, white)"/>
<path id="Vector_29" d="M108.538 95.6511C108.585 95.6983 108.675 95.8869 108.712 95.9573C108.692 96.2775 108.665 96.3507 108.562 96.6537C107.278 100.437 102.702 105.518 99.059 107.055C98.9583 106.918 99.0015 106.989 98.9951 106.774C101.27 104.999 104.961 101.302 106.715 99.0027C107.101 98.4966 108.189 96.333 108.538 95.6511Z" fill="var(--fill-0, white)"/>
<path id="Vector_30" d="M41.8269 103.174C42.2195 103.141 42.3053 103.118 42.6655 103.267L42.7133 103.474C41.6759 104.969 32.2329 108.547 30.2054 109.28L29.7319 109.442L29.6652 109.309C30.2801 108.665 39.7653 104.566 41.8269 103.174Z" fill="var(--fill-0, white)"/>
<path id="Vector_31" d="M100.174 40.6026C99.9211 36.0609 99.5301 37.9078 96.7726 36.6321C97.1033 36.2232 98.586 36.3247 99.3251 35.719C100.113 35.0737 100.125 33.8533 100.273 32.8508C100.61 34.8186 100.411 35.5341 102.44 36.2652L102.113 36.3846C102.067 36.6411 102.051 36.7105 102.059 36.9691C100.445 37.6844 100.573 39.0053 100.174 40.6026Z" fill="var(--fill-0, white)"/>
<path id="Vector_32" d="M35.5555 41.6032C37.1592 41.7609 39.538 44.2736 40.3501 45.6401C41.5912 47.7289 41.3033 50.6129 38.1661 49.8008C37.5883 49.6513 37.3141 49.0243 37.1049 48.5347C37.2209 47.9806 37.2527 47.4678 37.7812 47.2056L37.9521 47.357C37.1915 49.9646 40.3613 49.5781 40.1965 47.6037C39.9953 45.1911 37.1833 43.1691 35.5555 41.6032Z" fill="var(--fill-0, white)"/>
<path id="Vector_33" d="M35.6395 59.4477C35.9033 59.4504 35.8967 59.4601 36.1237 59.5665C35.3433 60.6107 34.7162 61.809 33.7355 62.7364C33.1544 63.286 32.8153 63.242 32.0389 63.1975C31.8162 63.0591 31.5017 62.8313 31.3767 62.6034C30.247 60.5435 34.4346 60.0614 35.6395 59.4477ZM32.4739 62.5754C33.1896 62.2537 33.8569 61.6682 34.2004 60.9596L34.1316 60.7749L33.8694 60.7718C33.303 60.9719 32.4889 61.1861 32.0973 61.6036C31.9654 62.1165 32.0449 62.1949 32.4739 62.5754Z" fill="var(--fill-0, white)"/>
<path id="Vector_34" d="M44.3308 107.642C44.6116 107.54 44.4676 107.548 44.7759 107.658C44.398 108.575 43.4494 109.73 42.8045 110.504C42.2689 111.148 41.8961 111.251 41.091 111.376C40.7462 111.228 40.3069 111 40.2241 110.604C39.7422 108.299 42.7711 107.998 44.3308 107.642ZM41.3943 110.651C41.9738 110.27 42.6752 109.707 42.9316 109.043L42.8678 108.806L42.5237 108.69C41.7882 109.004 40.9117 109.475 41.0232 110.383C41.1205 110.456 41.2958 110.598 41.3943 110.651Z" fill="var(--fill-0, white)"/>
<path id="Vector_35" d="M105.988 109.748C107.112 109.67 110.855 109.771 111.808 110.168L111.757 110.326C110.419 110.779 108.851 110.769 107.436 110.809C106.542 110.841 101.888 110.839 101.497 110.227C102.243 109.798 105 109.789 105.988 109.748Z" fill="var(--fill-0, white)"/>
<path id="Vector_36" d="M109.014 100.977C109.69 101.244 109.734 102.501 109.914 103.262C110.782 103.672 111.977 103.869 112.938 104.066C112.409 104.216 110.665 104.428 109.961 104.557C109.713 105.452 109.589 105.918 109.473 106.842L109.193 106.985C108.9 106.676 108.764 105.353 108.661 104.789C107.699 104.406 106.872 104.249 105.862 104.027C107.004 103.781 107.593 103.671 108.656 103.212C108.891 102.275 108.948 101.94 109.014 100.977Z" fill="var(--fill-0, white)"/>
<path id="Vector_37" d="M75.1837 37.9082C75.6774 37.8974 75.7609 37.8165 76.1478 38.0294C75.8158 38.3534 73.0683 38.8036 72.2647 39.1033C68.7044 40.4309 66.8354 41.5852 64.318 44.3177C64.1642 44.5259 63.972 44.7138 63.7916 44.9013L63.6354 44.7979C64.1947 43.2052 65.7827 42.0631 67.0279 41.1018C69.585 39.1275 71.9595 38.1388 75.1837 37.9082Z" fill="var(--fill-0, white)"/>
<path id="Vector_38" d="M109.256 58.7994C110.041 58.7866 110.623 58.8311 111.118 59.5002C111.406 61.3738 108.97 61.7005 107.664 61.9171C107.267 62.1891 106.577 62.7945 106.181 63.1197C106.844 61.7608 107.939 59.5461 109.256 58.7994ZM108.85 61.1794C109.491 60.9671 110.374 60.6726 110.296 59.8473C110.027 59.5256 109.906 59.5263 109.498 59.446C109.059 59.8138 108.338 60.4812 108.293 61.0808C108.578 61.2819 108.44 61.2399 108.85 61.1794Z" fill="var(--fill-0, white)"/>
<path id="Vector_39" d="M105.96 40.7779C106.551 40.7798 106.667 40.7625 107.042 41.1812C107.713 43.6055 105.322 43.6262 103.627 44.3019L103.089 44.5661L102.928 44.4656C103.13 43.173 104.709 41.3008 105.96 40.7779ZM105.018 43.0863C105.665 42.8779 106.836 42.5334 106.541 41.6623C106.346 41.5443 106.266 41.4791 106.049 41.4045C105.509 41.6287 104.414 42.3971 104.683 43.0496L105.018 43.0863Z" fill="var(--fill-0, white)"/>
<path id="Vector_40" d="M52.5544 23.6925L52.7622 23.7448C52.5927 24.2436 51.2724 24.874 51.0931 25.6328C50.253 29.1872 51.9308 29.9032 48.0473 32.0737L47.7496 31.9705C47.6865 31.5491 48.7003 31.0317 49.1418 30.4259C50.2835 28.86 49.6555 27.5297 50.0463 25.5025C50.9364 24.4355 51.3313 24.2624 52.5544 23.6925Z" fill="var(--fill-0, white)"/>
<path id="Vector_41" d="M119.389 50.0199C122.116 52.0359 120.127 56.7454 116.733 54.4969C116.439 53.984 116.29 53.577 116.497 52.9978L116.758 52.9186C116.999 53.1482 117.295 53.757 117.357 53.8125C119.335 55.5979 121.245 52.3454 118.397 50.6577C118.719 50.4359 119.057 50.2288 119.389 50.0199Z" fill="var(--fill-0, white)"/>
<path id="Vector_42" d="M44.0204 104.58C44.4113 104.614 44.4811 104.727 44.6413 105.014C44.2252 105.806 37.0049 108.753 35.6753 109.328C35.428 109.503 35.5197 109.461 35.2462 109.552L35.1712 109.487L35.2023 109.293C37.0358 107.724 39.4724 107.22 41.4924 105.938C42.2533 105.456 43.211 104.961 44.0204 104.58Z" fill="var(--fill-0, white)"/>
<path id="Vector_43" d="M70.1205 33.1939C71.6924 33.0606 73.0303 33.1972 74.4883 33.8226C75.2592 34.1532 77.1465 35.0391 77.461 35.8031C77.0422 35.868 76.836 35.628 76.3837 35.3652C74.7641 34.4783 72.6914 33.9402 70.8569 33.8147C70.2305 33.7719 68.1299 33.9146 67.7393 33.6496C68.0183 33.3667 69.6332 33.2535 70.1205 33.1939Z" fill="var(--fill-0, white)"/>
<path id="Vector_44" d="M110.335 45.0372L110.504 45.2601C109.743 46.0215 103.942 50.8906 103.166 51.3154C103.079 51.1609 102.919 50.9537 102.983 50.8348C103.753 49.4053 109.104 45.8649 110.335 45.0372Z" fill="var(--fill-0, white)"/>
<path id="Vector_45" d="M111.272 50.6L111.506 50.7014C111.401 51.0773 105.421 55.9071 104.596 56.4719C104.293 56.2998 104.328 56.049 104.373 55.7759C104.96 54.8714 110.189 51.2393 111.272 50.6Z" fill="var(--fill-0, white)"/>
<path id="Vector_46" d="M50.146 53.2257C50.4151 53.7395 49.6492 54.4967 49.3167 55.1753C48.1814 57.4924 47.7837 60.1165 47.1946 62.6169C47.0984 63.025 47.1329 63.7079 47.0289 64.2833L47.0088 64.392C45.9868 63.0196 47.532 58.8419 47.9035 57.2646C48.2661 55.7245 49.1022 54.4064 50.146 53.2257Z" fill="var(--fill-0, white)"/>
<path id="Vector_47" d="M114.999 118.976C113.036 121.816 108.775 118.669 110.574 116.952C111.071 117.26 111.156 118.402 111.752 118.782C112.831 119.47 113.502 119.148 114.161 118.17C114.367 118.51 114.687 118.729 114.999 118.976Z" fill="var(--fill-0, white)"/>
<path id="Vector_48" d="M33.5578 50.8318C33.8118 51.3333 33.8358 52.0698 33.8938 52.6459C34.3388 52.7835 34.904 52.9061 35.1761 53.2422C33.6369 54.121 33.9043 53.9188 33.6615 55.4926L33.412 55.4345C32.7941 53.3145 32.3944 53.6999 30.4211 53.4067C31.2123 53.0991 32.0491 52.908 32.8726 52.6975C33.0064 52.1125 33.246 51.3388 33.5578 50.8318Z" fill="var(--fill-0, white)"/>
<path id="Vector_49" d="M110.015 63.9702C111.048 64.5408 109.65 65.4839 113.057 66.4663C112.326 66.5368 111.595 66.5977 110.863 66.6488C110.664 67.1889 110.434 67.7497 110.224 68.2884C110.16 68.3576 110.161 68.3299 110.026 68.353C109.705 66.2748 109.458 66.7216 107.449 66.3625L109.728 65.7393L110.015 63.9702Z" fill="var(--fill-0, white)"/>
<path id="Vector_50" d="M98.9651 86.0243C99.37 86.2492 99.5387 87.3315 99.7494 87.9782C99.4403 89.1121 99.3882 89.6859 98.4065 90.3067C96.5361 90.0054 98.4967 86.9277 98.9651 86.0243ZM98.4795 89.5381C98.7531 89.0326 99.2491 88.1801 99.0935 87.6021C98.6433 88.1053 98.3385 88.3944 98.2928 89.0939L98.4795 89.5381Z" fill="var(--fill-0, white)"/>
<path id="Vector_51" d="M99.0935 87.6021C99.2491 88.1801 98.7531 89.0326 98.4795 89.5381L98.2928 89.0939C98.3385 88.3944 98.6433 88.1053 99.0935 87.6021Z" fill="var(--fill-0, white)"/>
<path id="Vector_52" d="M54.3721 27.0151L54.5244 27.1429C54.3365 28.4053 52.9621 27.1755 53.5856 30.904C53.5138 31.0877 53.4396 31.2705 53.3627 31.4523C52.8664 32.6223 52.4163 32.888 51.2549 33.3545C51.0659 33.1944 51.0799 33.2015 50.9688 32.978C54.3732 31.4328 50.5451 29.0168 54.3721 27.0151Z" fill="var(--fill-0, white)"/>
<path id="Vector_53" d="M80.0128 36.6754C80.1449 36.6625 80.2774 36.6536 80.41 36.6489C82.6634 36.5506 84.8793 37.2238 86.635 38.7362C86.9524 39.0095 87.2546 39.3224 87.2522 39.7066C85.5332 38.6315 84.1773 37.7922 82.1693 37.3593C81.5637 37.2287 80.3699 37.166 79.9431 36.9526L80.0128 36.6754Z" fill="var(--fill-0, white)"/>
<path id="Vector_54" d="M49.4906 109.572C49.7602 109.477 49.7725 109.487 50.0582 109.562C50.2461 110.36 48.9639 111.933 48.1656 112.249C47.7648 112.101 47.6216 112.074 47.3506 111.727C47.0706 110.406 48.4496 109.872 49.4906 109.572Z" fill="var(--fill-0, white)"/>
<path id="Vector_55" d="M112.922 51.9486C113.488 51.9387 113.552 52.0082 113.895 52.412C114.169 53.6125 112.948 54.1523 112.02 54.375C111.795 54.4448 111.594 54.4886 111.365 54.5406L111.166 54.3624C111.185 53.6473 112.241 52.2191 112.922 51.9486Z" fill="var(--fill-0, white)"/>
<path id="Vector_56" d="M118.397 50.6577C117.114 50.2157 115.14 50.6799 114.122 50.2855L114.155 50.1134C115.738 49.2133 117.774 49.1947 119.389 50.0199C119.057 50.2288 118.719 50.4359 118.397 50.6577Z" fill="var(--fill-0, white)"/>
<path id="Vector_57" d="M48.7552 23.27L48.9628 23.3217L49.0276 23.4813C46.4144 25.8977 49.921 28.0469 45.9423 29.5148C45.4573 28.8964 47.1527 28.6302 47.2806 27.9597C47.6572 25.9854 46.6054 24.4702 48.7552 23.27Z" fill="var(--fill-0, white)"/>
<path id="Vector_58" d="M43.7112 82.4408L43.9335 82.6677C44.2932 83.903 44.6525 85.2881 43.5885 86.2721C43.3838 86.1491 43.1638 85.9904 42.9643 85.8534C42.3035 84.7834 43.0421 83.3347 43.7112 82.4408Z" fill="var(--fill-0, white)"/>
<path id="Vector_59" d="M76.0994 39.4214C77.04 39.2539 78.0524 39.5691 78.9742 39.7943C78.3498 39.8744 77.8049 39.8962 77.1842 39.9353C75.478 40.0425 73.9272 41.0939 72.4605 41.8789C72.0502 42.1452 71.7935 42.4079 71.3579 42.4264C71.5934 41.8094 74.3538 40.0885 75.0427 39.6733C75.1889 39.5853 75.884 39.4556 76.0994 39.4214Z" fill="var(--fill-0, white)"/>
<path id="Vector_60" d="M30.7498 66.5863C30.945 66.6094 31.0084 66.6653 31.1892 66.7553L31.2064 66.9752C30.8017 67.6066 29.7781 68.7966 29.0398 69.0015C28.6303 68.8138 28.5903 68.7686 28.2979 68.4233C27.9689 67.0793 29.7525 66.796 30.7498 66.5863Z" fill="var(--fill-0, white)"/>
<path id="Vector_61" d="M82.7456 109.692C82.9561 110.042 83.1876 110.98 83.3651 111.46C83.8764 112.844 84.3142 113.507 85.0737 114.733C83.9099 113.96 82.5412 112.885 82.2674 111.413C82.2452 110.888 82.1491 110.302 82.4503 109.892L82.564 109.965L82.7456 109.692Z" fill="var(--fill-0, white)"/>
<path id="Vector_62" d="M94.8323 30.8943C95.3186 30.8972 95.3742 30.9107 95.8257 31.094C96.1416 31.4684 96.0745 31.2877 96.0834 31.7704C95.5987 32.7278 95.3107 32.7983 94.3336 33.2147C94.0313 33.3456 94.0213 33.3471 93.6978 33.3197C93.3963 32.7126 94.292 31.2641 94.8323 30.8943Z" fill="var(--fill-0, white)"/>
<path id="Vector_63" d="M105.821 91.6747L106.07 91.9675L106.405 91.9015C106.367 92.4821 106.117 93.1086 106.237 93.4865C105.898 94.202 105.431 94.819 104.976 95.467C104.698 95.3513 104.691 95.3372 104.481 95.1131C104.519 94.7152 104.554 94.6546 104.365 94.3277C105.048 93.3755 105.36 92.7321 105.821 91.6747Z" fill="var(--fill-0, white)"/>
<path id="Vector_64" d="M44.4607 75.0051L44.6125 75.231C44.435 75.9618 42.9675 77.6936 42.1542 77.8134C41.5013 76.3475 43.4123 75.5464 44.4607 75.0051Z" fill="var(--fill-0, white)"/>
<path id="Vector_65" d="M114.807 115.323C115.643 116.542 115.718 117.664 114.999 118.976C114.687 118.729 114.367 118.51 114.161 118.17L114.395 117.259C114.403 116.514 114.611 116.051 114.807 115.323Z" fill="var(--fill-0, white)"/>
<path id="Vector_66" d="M105.697 75.1516C106.71 76.087 106.877 76.4578 107.529 77.6465C106.721 78.6124 107.537 79.0579 106.855 79.7415C106.597 78.0479 106.158 76.7853 105.697 75.1516Z" fill="var(--fill-0, white)"/>
<path id="Vector_67" d="M53.8522 83.2915C54.4574 84.3156 54.5534 84.9812 54.8141 86.1319C54.5507 86.4336 54.4797 86.5068 54.3071 86.8656C54.3333 86.4799 53.9049 84.2249 53.8522 83.2915Z" fill="var(--fill-0, white)"/>
<path id="Vector_68" d="M94.3869 95.9554C94.2138 96.6615 94.1069 97.014 93.8373 97.6881L93.8523 97.5871C93.7054 97.7753 93.6006 97.8557 93.5446 98.0895C93.5077 97.5048 93.8963 96.105 94.0434 95.4182L94.3869 95.9554Z" fill="var(--fill-0, white)"/>
<path id="Vector_69" d="M102.44 36.2652C102.873 36.2885 103.393 36.2598 103.728 36.5098C103.476 36.8215 102.474 36.9117 102.059 36.9691C102.051 36.7105 102.067 36.6411 102.113 36.3846L102.44 36.2652Z" fill="var(--fill-0, white)"/>
<path id="Vector_70" d="M107.801 80.399C108.196 81.1475 108.331 81.5639 108.596 82.3556L108.147 82.6301C107.967 81.7808 107.888 81.2637 107.801 80.399Z" fill="var(--fill-0, white)"/>
<path id="Vector_71" d="M25.0523 20.7577C25.4151 20.4259 25.7815 20.098 26.1513 19.7742C27.7276 21.2036 29.0984 22.3341 30.9932 23.1457C32.9871 23.9999 41.1914 23.695 38.9786 27.6752C38.1875 29.0984 34.7008 35.7488 33.6422 36.6488L33.3557 36.5532L33.0136 36.7302C32.9132 36.3165 32.926 36.1591 32.9314 35.7472C33.0868 35.317 33.6812 34.8115 33.8315 34.5156C34.3994 33.3975 37.7953 27.9906 37.6856 27.3123L37.5328 27.3142C36.9849 27.8316 36.2334 28.4922 35.8026 29.1C35.1938 29.9585 34.7881 31.1438 34.067 31.9108C33.8694 31.8542 33.1709 31.7749 32.8853 31.7177C34.1136 29.6198 35.7224 27.3247 37.5612 25.7478C33.5549 24.8157 31.6268 25.0839 28.0723 23.0244C24.7951 25.4891 23.0181 28.6661 22.2059 32.6235C22.974 33.0433 23.8927 33.4858 24.524 34.0732C23.9933 34.3881 23.8147 34.5403 23.2087 34.5081C21.0935 33.3276 19.3191 32.8069 17.1654 31.794C16.7457 31.5967 16.4651 31.34 16.3494 30.905L16.6392 30.6531C17.532 30.4543 20.5449 31.9055 21.5073 32.3308C22.0456 27.7627 23.4977 24.9279 27.334 22.1627C26.4598 21.7521 25.8452 21.3022 25.0523 20.7577Z" fill="var(--fill-0, white)"/>
<path id="Vector_72" d="M28.7069 39.8704C29.3303 37.6691 31.3877 33.4091 32.8853 31.7177C33.1709 31.7749 33.8694 31.8542 34.067 31.9108C32.5467 34.5824 30.7742 36.8127 29.8218 39.8144C31.0424 38.4873 32.0521 36.6854 32.9314 35.7473C32.926 36.1591 32.9132 36.3165 33.0136 36.7302L33.3557 36.5532L33.6422 36.6488C27.6516 46.7104 27.329 36.7424 23.2087 34.5081C23.8147 34.5403 23.9933 34.3881 24.524 34.0732C25.8766 34.8604 27.8575 38.4104 28.7069 39.8704Z" fill="var(--fill-0, white)"/>
</g>
<defs>
<clipPath id="clip0_0_47">
<rect width="142" height="142" fill="white"/>
</clipPath>
</defs>
</svg>
