<svg preserveAspectRatio="none" width="100%" height="100%" overflow="visible" style="display: block;" viewBox="0 0 22 22" fill="none" xmlns="http://www.w3.org/2000/svg">
<path id="Vector" fill-rule="evenodd" clip-rule="evenodd" d="M0 9.6715C0 4.33008 4.37672 0 9.77574 0C15.1747 0 19.5514 4.33008 19.5514 9.6715C19.5514 11.9312 18.7681 14.0099 17.4555 15.6564L22 20.2009L20.2008 22L15.6234 17.4226C13.9926 18.6288 11.9685 19.3431 9.77574 19.3431C4.37672 19.3431 0 15.013 0 9.6715ZM16.9372 9.672C16.9372 5.76544 13.7246 2.58708 9.77604 2.58708C5.82743 2.58708 2.61483 5.76544 2.61483 9.672C2.61483 13.5785 5.82743 16.7568 9.77604 16.7568C13.7246 16.7568 16.9372 13.5785 16.9372 9.672Z" fill="var(--fill-0, black)"/>
</svg>
