<svg preserveAspectRatio="none" width="100%" height="100%" overflow="visible" style="display: block;" viewBox="0 0 21.9999 23" fill="none" xmlns="http://www.w3.org/2000/svg">
<path id="Vector" fill-rule="evenodd" clip-rule="evenodd" d="M10.3884 11C6.67845 11 3.33845 13.25 1.94345 16.688L1.18345 18.56C1.02943 18.9396 0.971037 19.3512 1.01341 19.7586C1.05579 20.1661 1.19764 20.5569 1.42648 20.8966C1.65533 21.2364 1.96415 21.5147 2.32579 21.7071C2.68743 21.8995 3.09082 22.0001 3.50045 22H18.5005C18.91 21.9999 19.3133 21.8992 19.6748 21.7067C20.0363 21.5143 20.345 21.2359 20.5737 20.8962C20.8024 20.5565 20.9442 20.1657 20.9865 19.7584C21.0289 19.351 20.9705 18.9395 20.8165 18.56L20.0565 16.688C19.3748 15.0073 18.2071 13.5681 16.7029 12.5548C15.1986 11.5416 13.4262 11.0002 11.6125 11H10.3884ZM10.7255 1C9.7972 1 8.90696 1.36875 8.25058 2.02513C7.5942 2.6815 7.22545 3.57174 7.22545 4.5V4.881C7.22545 5.80926 7.5942 6.6995 8.25058 7.35587C8.90696 8.01225 9.7972 8.381 10.7255 8.381H11.2175C12.1457 8.381 13.036 8.01225 13.6923 7.35587C14.3487 6.6995 14.7175 5.80926 14.7175 4.881V4.5C14.7175 3.57174 14.3487 2.6815 13.6923 2.02513C13.036 1.36875 12.1457 1 11.2175 1H10.7255Z" stroke="var(--stroke-0, white)" stroke-width="2"/>
</svg>
