<svg preserveAspectRatio="none" width="100%" height="100%" overflow="visible" style="display: block;" viewBox="0 0 20 20" fill="none" xmlns="http://www.w3.org/2000/svg">
<g id="Icon" clip-path="url(#clip0_0_13)">
<path id="Vector" d="M14.1667 1.66667H5.83333C3.53215 1.66667 1.66667 3.53215 1.66667 5.83333V14.1667C1.66667 16.4679 3.53215 18.3333 5.83333 18.3333H14.1667C16.4679 18.3333 18.3333 16.4679 18.3333 14.1667V5.83333C18.3333 3.53215 16.4679 1.66667 14.1667 1.66667Z" stroke="var(--stroke-0, white)" stroke-width="1.66667" stroke-linecap="round" stroke-linejoin="round"/>
<path id="Vector_2" d="M13.3333 9.475C13.4362 10.1685 13.3177 10.8768 12.9948 11.4992C12.6719 12.1215 12.161 12.6262 11.5347 12.9414C10.9084 13.2566 10.1987 13.3663 9.50649 13.2549C8.81427 13.1436 8.1748 12.8167 7.67903 12.321C7.18326 11.8252 6.85644 11.1857 6.74506 10.4935C6.63367 9.80129 6.74339 9.09158 7.05861 8.46531C7.37382 7.83905 7.87849 7.32812 8.50082 7.0052C9.12315 6.68229 9.83146 6.56382 10.525 6.66667C11.2324 6.77157 11.8874 7.10122 12.3931 7.60692C12.8988 8.11262 13.2284 8.76756 13.3333 9.475Z" stroke="var(--stroke-0, white)" stroke-width="1.66667" stroke-linecap="round" stroke-linejoin="round"/>
<path id="Vector_3" d="M14.5833 5.41667H14.5917" stroke="var(--stroke-0, white)" stroke-width="1.66667" stroke-linecap="round" stroke-linejoin="round"/>
</g>
<defs>
<clipPath id="clip0_0_13">
<rect width="20" height="20" fill="white"/>
</clipPath>
</defs>
</svg>
