<svg preserveAspectRatio="none" width="100%" height="100%" overflow="visible" style="display: block;" viewBox="0 0 142 142" fill="none" xmlns="http://www.w3.org/2000/svg">
<g id="Ellipse 6 [Vectorized]" clip-path="url(#clip0_0_5)">
<g id="Vector">
</g>
<path id="Vector_2" d="M67.0937 29.3499C69.76 28.996 72.7572 29.4323 75.1951 30.5803C75.9933 30.9561 76.7571 31.5616 77.6128 31.7897C78.9471 32.1455 80.6778 31.8198 82.091 31.9888C84.1483 32.2348 85.8741 33.0018 87.6736 33.9889C92.1552 36.4473 93.833 38.3636 96.9318 42.3404C101.889 48.7021 102.663 58.754 104.342 66.4206C105.876 73.4268 108.55 80.333 107.601 87.6377C106.999 92.2752 105.679 95.6717 102.102 98.8945C101.269 99.6453 100.326 100.26 99.4757 100.988C98.2288 102.057 97.1469 103.284 95.8367 104.287C94.8126 105.071 93.7714 105.84 92.6192 106.427C91.211 107.145 85.1035 109.4 83.8154 109.228C83.6908 108.732 86.4923 106.209 86.9556 105.328C87.7858 103.749 88.6691 102.357 89.1817 100.611C86.7883 100.099 84.5065 99.5817 82.0918 99.171C81.8935 105.193 81.3844 107.722 84.1107 113.507L83.8697 113.496C80.662 110.52 80.8626 103.122 81.0885 99.0662C79.7022 100.523 75.7447 102.645 73.9483 103.519C69.8579 105.187 65.5632 102.367 62.2879 100.227C61.7486 99.8741 61.3583 99.561 60.9367 99.0723C61.6255 103.181 61.1227 109.626 58.6619 113.026C58.4506 113.318 58.3424 113.584 58.0084 113.659L57.9449 113.437C60.4458 109.4 60.2511 103.742 60.0201 99.2278C57.369 99.6535 55.4524 100.066 52.8384 100.671C54.6032 104.565 55.5273 106.66 58.9841 109.418C54.7072 108.805 48.3583 106.536 45.2332 103.429C43.5183 101.724 42.3243 100.808 40.4509 99.3137C32.261 92.7799 33.801 81.4525 36.2577 72.5465C36.7719 70.6863 37.2376 68.813 37.6543 66.9286C39.0324 60.7294 39.676 53.8381 42.1055 47.9448C46.2891 37.797 56.2649 30.4227 67.0937 29.3499ZM52.1618 72.5577C51.4916 74.7796 50.4705 78.6735 50.5806 80.9788C50.6384 82.1919 51.5638 84.4214 52.1427 85.4951C52.3059 85.795 52.4757 86.0915 52.6515 86.3844C53.2601 86.7526 53.7936 87.178 54.5212 86.922L54.8162 86.8141C55.5097 91.1679 57.2019 94.0441 60.2352 97.1122C63.2989 100.211 68.639 104.079 73.2878 102.653C78.0889 101.181 83.7453 96.346 85.6863 91.6251C86.5498 89.5252 86.8327 86.3716 87.8689 84.5201C87.8231 85.2377 87.49 86.7327 88.055 87.1637C88.6754 87.0227 89.3765 85.9947 89.7032 85.4642C92.0469 81.6585 91.6147 78.6545 90.5444 74.5067C90.25 73.3659 89.5895 69.5806 88.5767 68.5061C83.5494 65.9056 79.3665 62.073 77.9605 55.8268L77.8238 56.1323C75.6036 61.0423 72.0208 65.2131 67.1585 67.7694C66.1222 68.3142 64.3471 68.6939 63.2628 69.11L63.1777 69.1435C63.1257 69.1407 62.4653 68.9697 62.2641 68.9414C62.8179 68.7449 64.7301 66.2606 65.0009 65.6636L64.8842 65.5648C64.6838 65.6531 61.2091 68.0646 61.1733 68.1087L61.2231 68.4121L61.1159 68.5547C60.7322 68.4809 60.4044 68.6455 60.0856 68.8481C57.5183 70.4791 54.9189 71.3945 52.1618 72.5577ZM46.826 46.1116C46.6664 47.9461 46.7787 48.3887 47.2577 50.1824C45.0114 54.2325 43.8912 57.0821 43.4603 61.7156C43.2597 63.8732 43.107 65.6604 42.5301 67.7462C41.6832 70.8075 40.3208 72.837 39.0177 75.6443C38.7815 76.153 38.5863 77.1566 38.4045 77.7526C38.2659 78.4311 38.0682 79.1142 38.2051 79.7868C38.4231 79.5724 38.5154 79.2094 38.5262 78.9073C39.3897 74.7584 41.9979 72.0747 43.3678 68.0287C44.1436 65.7381 44.394 63.3947 44.6885 60.9611C45.2359 57.046 47.1713 51.8293 49.5544 48.6566C52.4687 44.7765 55.6571 41.9176 59.8063 39.4943C63.6285 37.2621 66.639 36.0243 71.0824 35.4702L71.2305 35.4717C72.0679 35.452 73.7203 35.6972 74.1829 35.5942C73.7256 35.1856 73.0503 35.1327 72.4692 35.1254C71.5332 35.0628 70.066 34.9929 69.1475 35.2118C64.0407 35.4899 57.7582 38.9852 53.8478 42.2128C53.7398 37.4241 54.6983 36.6293 58.8639 34.8469C62.3815 33.3416 65.5861 31.9478 69.5201 31.8535C70.8782 31.8126 72.2351 31.9672 73.5492 32.3128C74.1226 32.4674 75.9385 33.2381 76.2264 33.1936C75.9811 32.6873 74.0742 31.9268 73.5197 31.745C67.8526 29.8864 61.3314 31.9741 56.2701 34.6255C49.4555 38.1956 44.58 45.2613 42.3254 52.4812C41.9001 53.8435 41.5632 54.8965 41.5952 56.3266C41.3486 57.1425 41.2392 57.6826 41.0825 58.5148C40.9943 59.2788 40.7762 60.0488 40.867 60.7459C41.1399 60.5064 41.3615 59.4345 41.4217 59.0412C41.5688 58.4692 41.687 57.3063 41.8509 56.5579C43.2432 52.4081 44.4886 49.7557 46.826 46.1116ZM47.9362 58.9655C47.7733 59.8235 47.5726 60.8875 47.3444 61.7226C47.2162 62.5436 47.2818 63.7824 47.301 64.6474C47.4028 64.1072 47.6546 62.9536 47.6486 62.452C47.8878 61.154 48.1014 60.1161 48.4361 58.8419C48.5644 58.4889 48.768 57.7885 48.9298 57.4898C49.2963 56.8136 49.7882 53.9791 50.9514 54.6987C53.9518 56.5548 56.3583 57.2722 59.8888 56.7412C61.7138 55.1515 63.1006 52.6769 64.0265 50.4641C63.3421 50.3047 62.6686 50.1019 62.01 49.8567C60.5308 49.3213 57.0338 47.8339 56.3411 46.3593C56.3116 44.7497 60.028 42.67 61.2034 41.3973L61.2934 41.298C55.4047 43.5893 48.2152 52.6735 47.9362 58.9655ZM91.0985 45.9005C90.662 45.259 88.4392 42.5352 87.8488 42.3272L87.7466 42.5079C87.9829 42.973 88.7625 43.7838 89.1244 44.3039C90.1332 45.7534 91.1279 47.2775 91.9951 48.8068C94.2678 52.7931 94.7166 57.3995 95.7418 61.7897C96.0538 63.1252 96.9814 64.7075 96.9975 66.06C97.0044 66.6528 94.9822 66.8085 94.5391 66.8617C95.5157 67.0985 96.3431 67.2728 97.2149 67.8114C97.2434 68.0251 97.3331 68.8833 97.4142 69.0103L97.4596 68.8905C98.045 67.383 99.0845 67.1742 100.493 66.8734C99.6929 66.7464 98.497 66.6861 98.0546 66.0012C96.3143 63.3066 96.3267 59.6242 95.7678 56.5551C95.4964 55.0649 95.1278 53.7883 94.6704 52.4056C95.015 51.386 95.1991 50.9884 95.7357 50.0458C96.1339 52.1519 97.3205 54.2357 97.6939 55.8982C97.6502 56.4352 97.876 57.5963 97.9685 58.1751C98.0423 57.3767 98.1707 56.0146 97.966 55.2789C97.7101 54.4017 97.5688 53.4523 97.274 52.562C96.4374 50.0352 95.7833 48.9603 96.1197 46.2547C96.9068 48.5286 98.9417 51.1185 99.6251 53.6603C99.723 54.0248 99.9418 54.5408 100.159 54.8576L100.306 54.7669C100.504 52.6457 96.9609 45.5043 95.4632 43.4524C91.2652 37.701 87.9741 34.9337 81.1372 33.5493C80.2263 33.36 79.6771 33.2851 78.7759 33.5261L78.824 33.6522C79.0807 33.6953 79.4389 33.7705 79.6885 33.7752C82.2941 34.3981 84.5493 34.8155 86.8373 36.281C90.9198 38.8962 91.8393 41.1585 91.0985 45.9005ZM86.4216 57.8345C88.3649 57.3319 89.426 56.6397 91.1773 55.9232L91.5345 57.4451C91.8732 58.851 92.3935 61.3385 92.8416 62.5775C92.5748 55.8952 91.1677 50.6729 87.2569 45.2685C85.5184 42.8658 84.0866 41.6344 81.3607 40.3746C81.8275 41.1552 83.4717 41.9491 84.3228 42.8291C86.2951 44.8685 87.1709 46.7446 88.4962 49.1764C87.39 50.969 86.3945 51.6266 84.4172 52.3238C84.8817 53.8575 85.7455 56.3721 86.4216 57.8345ZM40.4235 82.4702L40.433 82.5478C40.63 84.2616 40.1721 85.6474 40.2713 87.0834C40.7339 93.7899 41.6549 98.3128 46.9492 102.53C47.0902 102.643 47.2332 102.753 47.3781 102.86C46.5833 101.408 45.3309 100.426 44.4815 99.0304C41.2104 93.6558 40.4367 85.7484 41.668 79.69C38.7272 83.2837 37.775 87.0926 38.2207 91.6365C36.2219 87.5607 36.4636 81.9099 37.3718 77.5805C37.4404 77.0726 37.5831 76.4617 37.688 75.951C37.7194 75.3898 37.9048 75.3073 37.7936 74.6396L37.6665 74.5879C37.4836 74.8549 37.4427 75.1287 37.3617 75.4455L37.0669 76.703C35.3875 82.2184 35.1266 87.7377 37.7878 93.0558C38.074 93.6278 39.638 96.0339 40.09 96.2491L40.2594 96.152C40.1481 95.7206 39.9419 95.4878 39.8028 95.0923C38.364 91.0018 39.0476 86.4217 40.4235 82.4702ZM71.7495 54.9247C71.1814 58.3987 69.5075 61.0133 68.1378 64.0921C70.7178 60.7707 71.7418 58.6948 72.7869 54.5763C73.0256 53.6356 73.3688 52.553 73.4408 51.594C72.9379 51.4614 71.9531 53.5427 71.5428 54.0063C68.97 56.912 66.9871 60.0643 63.7795 62.3462C62.4538 63.2893 61.0838 64.8156 59.6795 65.7011C56.0044 68.0181 51.9211 70.2431 47.8421 71.7411C47.3932 71.8875 46.5112 72.1009 46.2437 72.4226C46.7697 72.5858 47.5937 72.2451 48.1043 72.0568C51.6231 71.0969 53.6674 70.2215 56.8962 68.6166C60.0258 67.0613 60.6064 66.6512 63.2668 64.4249C66.8299 61.4431 69.2401 58.8317 71.7495 54.9247ZM100.754 82.1104C101.207 91.0092 100.474 96.2435 94.3178 103.067L94.2658 103.125C100.115 99.4119 101.529 93.7107 101.815 87.1511C101.859 86.1269 101.374 83.1621 101.725 82.5268C102.002 82.9068 102.164 83.7409 102.304 84.2258C103.148 87.1679 103.422 90.0126 102.866 93.0357C102.739 93.7246 101.833 96.0024 101.872 96.3783C101.931 96.3674 102.021 96.3574 102.064 96.3116C107.699 90.3579 107.03 79.7437 103.772 72.7944C104.303 77.6262 105.882 82.0521 104.92 87.1643C104.752 88.053 104.714 88.9303 104.283 89.7371L104.113 89.7691C103.907 89.3764 104.192 88.5746 104.088 87.9081C103.678 85.2677 102.937 82.8061 101.426 80.5691C101.171 80.1923 100.984 79.8983 100.588 79.8242C100.375 80.2784 100.663 81.536 100.754 82.1104ZM48.9264 67.7957C52.5784 66.6622 56.1 63.9613 59.0427 61.5341C61.5459 59.4694 64.3521 55.2903 65.8614 52.426L66.1031 51.9606C66.2847 51.5735 66.434 51.3516 66.3703 50.9227C66.0544 51.0608 66.0346 51.2824 65.8397 51.6608C64.4686 54.0575 61.7674 57.3066 59.854 59.4363C58.2265 61.248 54.7664 63.4582 52.8535 65.2C51.9549 66.0185 49.9743 67.0229 48.9264 67.7957ZM67.9753 65.3362C69.4155 64.1529 71.9279 62.0091 73.1771 60.7219C74.9659 58.879 79.8925 47.9626 78.6226 46.2295C77.2792 50.8309 75.1622 55.9336 72.5139 59.9979C71.815 61.0705 68.0424 64.7252 67.8553 65.1985L67.9753 65.3362ZM61.8081 61.0951L61.2451 61.3717L61.1661 61.6165C61.5706 61.7216 62.0952 61.3612 62.4892 61.1501C67.8402 57.1655 71.8958 51.6898 74.1474 45.4095L74.0391 45.2142L74.1901 45.0281C73.6927 45.5152 72.4628 47.7302 72.0155 48.4646C69.0973 53.255 65.9073 57.2708 61.8081 61.0951ZM47.4799 95.4893L47.7978 95.6618L47.8925 95.5606C47.0995 92.584 46.5251 89.7093 46.5462 86.6067C46.5682 83.3745 47.1882 80.2206 47.9624 77.0953C47.991 76.9805 47.9353 76.7496 47.9018 76.6385C47.5219 77.2251 47.3151 77.7028 47.0645 78.3464C44.7024 84.4147 45.1424 89.5797 47.4799 95.4893ZM87.4917 65.9038C87.2421 65.3857 86.9786 65.1381 86.5905 64.7244C84.4657 62.46 82.2552 60.2798 81.1516 57.3052C80.4857 55.5105 80.0769 53.633 79.6221 51.779C79.4258 50.979 79.3815 48.999 78.8982 48.4959C78.2977 52.1682 79.5936 56.2858 81.1893 59.598C82.1299 61.5501 85.6378 64.8255 87.4917 65.9038ZM97.6193 84.035L97.3245 86.5321C97.7845 85.4368 97.866 85.1878 98.0941 84.036C98.8506 78.113 97.56 73.5854 94.2192 68.6671C94.0905 68.2797 94.0156 67.8983 93.6802 67.6715L93.426 67.7265C93.6218 68.1564 93.9201 68.6969 93.9894 69.136C96.8676 74.8289 97.1376 77.9403 97.6193 84.035ZM75.6986 47.7707C74.6369 50.6474 74.395 53.0399 73.519 55.476L73.665 55.6772C74.5773 54.5555 76.6506 48.9297 75.6986 47.7707ZM70.0465 46.4986C69.9552 46.0116 69.9014 45.3858 69.5742 45.0415C69.3644 46.1246 69.4528 46.1446 68.573 46.7352C68.4981 46.7853 68.4228 46.8349 68.3472 46.884C68.3916 46.9603 69.3972 47.9563 69.683 48.3457L69.7669 48.1488L69.8467 48.0423C70.4313 47.2775 70.6684 47.47 71.3558 46.9311C71.1079 46.6611 70.4414 46.5822 70.0465 46.4986ZM94.3105 96.1884C94.4504 95.6108 95.1744 93.7778 95.4444 93.0229C96.5382 89.9656 96.5947 83.5358 95.0779 80.674C94.9327 80.0361 94.6729 79.43 94.311 78.885C94.539 79.9507 94.8389 81.2054 94.9843 82.2681C95.404 85.3193 95.2995 88.9292 94.8313 91.953C94.6648 93.0291 94.031 95.0022 94.0127 95.9756C93.8814 96.4833 93.5508 97.4278 93.7089 97.8889C94.0575 97.1697 94.1443 96.9664 94.3105 96.1884ZM84.5234 58.4498C83.968 56.6864 83.2257 54.9333 82.567 53.2022C82.3271 52.5718 81.7106 50.263 81.2176 49.9918C81.3857 52.0626 81.7279 53.9916 82.6892 55.8612C83.0545 56.5716 83.8445 58.0781 84.5234 58.4498ZM100.83 57.3432C100.834 56.8426 100.925 56.1982 100.528 55.8326C100.514 56.279 100.448 56.8032 100.624 57.1893L100.83 57.3432ZM42.3421 74.0158C42.1146 74.6532 41.8994 75.2934 41.6136 75.9068L40.5006 76.0984L40.3406 76.3315C40.4679 76.4078 41.5344 76.7755 41.5232 76.7632C42.0029 77.2943 42.2377 78.1882 42.481 78.8692L42.8269 76.9755C43.4825 76.7263 44.1422 76.4877 44.8054 76.2597L42.8312 75.7638C42.7426 75.2833 42.6383 74.3448 42.3421 74.0158ZM100.465 74.4269C101.239 76.3427 103.088 78.1775 103.337 80.5316C103.367 80.8101 103.541 81.5087 103.81 81.6209C104.074 79.1757 103.144 76.4563 101.268 74.8486C101.03 74.6444 100.783 74.4618 100.465 74.4269ZM53.7552 106.257C50.0066 102.394 47.1018 99.7919 45.1119 94.5577C45.0132 94.2978 44.0228 91.9433 43.9773 91.8861C43.7375 96.2718 48.4049 103.11 52.0779 105.418C52.5604 105.721 53.182 106.192 53.7552 106.257ZM75.5795 38.3985C74.5368 38.2947 73.8383 38.1986 72.7954 38.2998C68.2302 39.2139 64.6128 41.9116 62.7253 46.2267C63.01 45.8729 63.7473 44.9086 64.0266 44.6143C67.5651 40.7656 70.498 39.4129 75.5795 38.3985ZM80.5478 36.5266L80.6682 36.8167C81.5317 37.1505 82.4811 37.3407 83.4124 37.6938C84.2011 37.9928 86.7417 39.4287 87.241 39.5485C86.5727 37.5702 82.4942 36.3086 80.5478 36.5266ZM98.2424 91.7859L98.1854 91.8782C97.6782 92.7173 97.3705 93.965 96.9235 94.8523C96.0146 96.656 94.8707 98.8427 93.7192 100.482C92.7522 101.84 91.6731 103.114 90.4931 104.292C90.0819 104.698 88.6343 105.833 88.5213 106.099L88.6857 106.245C93.9722 103.127 97.4329 97.9696 98.36 91.8855L98.2424 91.7859Z" fill="var(--fill-0, white)"/>
<path id="Vector_3" d="M77.3428 61.6349C77.6707 61.8723 77.9078 62.7458 78.0638 63.1793L80.1831 63.5712C78.4167 63.905 78.1517 63.4662 77.5247 65.3782L77.4459 65.5219C77.2375 65.3896 77.2635 64.7912 77.1654 64.3662C76.6692 63.7378 75.8032 63.6217 75.0147 63.4146C75.6646 63.3172 76.3819 63.4066 76.9248 63.092C77.2649 62.7471 77.2766 62.1353 77.3428 61.6349Z" fill="var(--fill-0, white)"/>
<path id="Vector_4" d="M73.5374 73.1709C73.7081 73.6023 73.4073 74.3701 73.3265 74.946C73.11 76.4864 73.3307 78.4159 73.0085 79.8844C72.4551 77.6482 72.6408 75.2929 73.5374 73.1709Z" fill="var(--fill-0, white)"/>
<path id="Vector_5" d="M79.5778 67.8481C80.3714 67.7968 81.7439 67.6641 82.3819 68.1123C82.1955 68.3254 79.9294 68.0187 79.1726 68.3822C78.7113 68.54 77.5456 69.0185 77.1705 68.9079L77.3793 68.9167L77.3919 68.7286C78.0664 68.3107 78.8236 68.0997 79.5778 67.8481Z" fill="var(--fill-0, white)"/>
<path id="Vector_6" d="M71.2129 87.281C71.7426 86.8941 72.5312 86.3311 73.1489 86.1582L73.3958 86.3227C72.6593 86.7142 71.8933 87.2299 71.1855 87.6817C70.4895 87.292 69.2251 86.6501 68.7273 86.0969C69.5308 86.1238 70.5313 86.8397 71.2129 87.281Z" fill="var(--fill-0, white)"/>
<path id="Vector_7" d="M65.8397 51.6608L66.1031 51.9606L65.8614 52.426C64.3521 55.2903 61.5459 59.4694 59.0427 61.5341C56.1 63.9613 52.5784 66.6622 48.9264 67.7957C49.9743 67.0229 51.9549 66.0185 52.8535 65.2C54.7664 63.4582 58.2265 61.248 59.854 59.4363C61.7674 57.3066 64.4686 54.0575 65.8397 51.6608Z" fill="var(--fill-0, white)"/>
<path id="Vector_8" d="M78.6227 46.2295C79.8925 47.9626 74.9659 58.879 73.1772 60.7219C71.9279 62.0091 69.4155 64.1529 67.9753 65.3362L67.8553 65.1985C68.0424 64.7252 71.815 61.0705 72.5139 59.9979C75.1622 55.9336 77.2792 50.8309 78.6227 46.2295Z" fill="var(--fill-0, white)"/>
<path id="Vector_9" d="M61.8081 61.0951C65.9073 57.2708 69.0973 53.255 72.0155 48.4646C72.4629 47.7302 73.6927 45.5152 74.1901 45.0281L74.0391 45.2142L74.1474 45.4095C71.8958 51.6898 67.8402 57.1655 62.4892 61.1501L61.8081 61.0951Z" fill="var(--fill-0, white)"/>
<path id="Vector_10" d="M78.8982 48.4959C79.3815 48.999 79.4258 50.979 79.6221 51.779C80.0769 53.633 80.4857 55.5105 81.1516 57.3052C82.2552 60.2798 84.4657 62.46 86.5905 64.7244C86.9786 65.1381 87.2421 65.3857 87.4917 65.9038C85.6378 64.8255 82.1299 61.5501 81.1893 59.598C79.5936 56.2858 78.2977 52.1682 78.8982 48.4959Z" fill="var(--fill-0, white)"/>
<path id="Vector_11" d="M98.2424 91.7859L98.36 91.8855C97.4329 97.9696 93.9722 103.127 88.6857 106.245L88.5213 106.099C88.6343 105.833 90.0819 104.698 90.4931 104.292C91.6731 103.114 92.7522 101.84 93.7192 100.482C94.8707 98.8427 96.0146 96.656 96.9235 94.8523C97.3705 93.965 97.6783 92.7173 98.1854 91.8782L98.2424 91.7859Z" fill="var(--fill-0, white)"/>
<path id="Vector_12" d="M43.9773 91.8861C44.0228 91.9433 45.0132 94.2978 45.1119 94.5577C47.1018 99.7919 50.0066 102.394 53.7552 106.257C53.1821 106.192 52.5604 105.721 52.0779 105.418C48.4049 103.11 43.7375 96.2718 43.9773 91.8861Z" fill="var(--fill-0, white)"/>
<path id="Vector_13" d="M72.7954 38.2998C73.8383 38.1986 74.5368 38.2947 75.5795 38.3985C70.498 39.4129 67.5651 40.7657 64.0266 44.6144C63.7473 44.9086 63.01 45.8729 62.7253 46.2267C64.6128 41.9116 68.2302 39.2139 72.7954 38.2998Z" fill="var(--fill-0, white)"/>
<path id="Vector_14" d="M81.2176 49.9918C81.7106 50.263 82.3271 52.5718 82.567 53.2022C83.2257 54.9333 83.968 56.6864 84.5234 58.4498C83.8445 58.0781 83.0545 56.5716 82.6892 55.8612C81.7279 53.9916 81.3857 52.0626 81.2176 49.9918Z" fill="var(--fill-0, white)"/>
<path id="Vector_15" d="M42.3421 74.0158C42.6383 74.3448 42.7426 75.2833 42.8312 75.7638L44.8054 76.2597C44.1422 76.4877 43.4825 76.7263 42.8269 76.9755L42.481 78.8692C42.2377 78.1882 42.0029 77.2943 41.5232 76.7632C41.5344 76.7755 40.4679 76.4078 40.3406 76.3315L40.5006 76.0984L41.6136 75.9068C41.8994 75.2934 42.1146 74.6532 42.3421 74.0158Z" fill="var(--fill-0, white)"/>
<path id="Vector_16" d="M75.6986 47.7707C76.6506 48.9297 74.5773 54.5555 73.665 55.6772L73.519 55.476C74.395 53.0399 74.6369 50.6474 75.6986 47.7707Z" fill="var(--fill-0, white)"/>
<path id="Vector_17" d="M80.5478 36.5266C82.4942 36.3086 86.5727 37.5702 87.241 39.5485C86.7418 39.4287 84.2011 37.9928 83.4124 37.6938C82.4811 37.3407 81.5317 37.1505 80.6682 36.8167L80.5478 36.5266Z" fill="var(--fill-0, white)"/>
<path id="Vector_18" d="M69.5742 45.0415C69.9014 45.3858 69.9552 46.0116 70.0465 46.4986C70.4414 46.5822 71.1079 46.6611 71.3558 46.9311C70.6684 47.47 70.4313 47.2775 69.8467 48.0423L69.7669 48.1488L69.683 48.3457C69.3972 47.9563 68.3916 46.9603 68.3472 46.884C68.4228 46.8349 68.4981 46.7853 68.573 46.7352C69.4528 46.1446 69.3644 46.1246 69.5742 45.0415Z" fill="var(--fill-0, white)"/>
<path id="Vector_19" d="M61.2231 68.4121C61.5381 68.5741 61.9503 68.8007 62.2641 68.9414C62.4653 68.9697 63.1257 69.1407 63.1777 69.1435C63.6469 69.7782 65.3727 70.6683 65.9374 71.6472C64.7523 70.8109 61.7606 69.3692 61.1159 68.5547L61.2231 68.4121Z" fill="var(--fill-0, white)"/>
<path id="Vector_20" d="M47.9362 58.9655L48.4361 58.8419C48.1014 60.1161 47.8878 61.154 47.6486 62.452L47.6048 62.4929L47.4559 62.4878L47.3444 61.7226C47.5726 60.8875 47.7733 59.8235 47.9362 58.9655Z" fill="var(--fill-0, white)"/>
<path id="Vector_21" d="M41.5952 56.3266L41.8509 56.5579C41.687 57.3063 41.5688 58.4692 41.4217 59.0412L41.237 58.9971L41.0825 58.5148C41.2392 57.6826 41.3486 57.1425 41.5952 56.3266Z" fill="var(--fill-0, white)"/>
<path id="Vector_22" d="M54.5212 86.922C54.3193 86.0914 54.0625 85.5196 54.1537 84.7106L54.2344 84.6486C54.6778 85.4102 54.7424 85.9379 54.8162 86.8141L54.5212 86.922Z" fill="var(--fill-0, white)"/>
<path id="Vector_23" d="M72.4692 35.1254C73.0503 35.1327 73.7256 35.1856 74.1829 35.5942C73.7203 35.6972 72.0679 35.452 71.2305 35.4717L72.3731 35.3154L72.4692 35.1254Z" fill="var(--fill-0, white)"/>
<path id="Vector_24" d="M41.0825 58.5148L41.237 58.9971L41.4217 59.0412C41.3615 59.4345 41.1399 60.5064 40.867 60.7459C40.7762 60.0488 40.9943 59.2788 41.0825 58.5148Z" fill="var(--fill-0, white)"/>
<path id="Vector_25" d="M97.6193 84.035L98.0941 84.036C97.866 85.1878 97.7845 85.4368 97.3245 86.5321L97.6193 84.035Z" fill="var(--fill-0, white)"/>
<path id="Vector_26" d="M69.1475 35.2118C70.066 34.9929 71.5332 35.0628 72.4692 35.1254L72.3731 35.3154L71.2305 35.4717L71.0824 35.4702L71.0774 35.3749C70.8272 35.145 69.5991 35.219 69.1475 35.2118Z" fill="var(--fill-0, white)"/>
<path id="Vector_27" d="M48.1043 72.0568C47.5937 72.2451 46.7697 72.5858 46.2437 72.4226C46.5112 72.1009 47.3932 71.8875 47.8421 71.7411C47.9903 72.0018 47.8932 71.9315 48.1043 72.0568Z" fill="var(--fill-0, white)"/>
<path id="Vector_28" d="M37.3617 75.4455L37.688 75.951C37.5831 76.4617 37.4404 77.0726 37.3718 77.5805C37.3191 77.1653 37.2539 77.0674 37.0669 76.703L37.3617 75.4455Z" fill="var(--fill-0, white)"/>
<path id="Vector_29" d="M94.0127 95.9756L94.3105 96.1884C94.1443 96.9664 94.0575 97.1697 93.7089 97.8889C93.5508 97.4278 93.8814 96.4833 94.0127 95.9756Z" fill="var(--fill-0, white)"/>
<path id="Vector_30" d="M94.311 78.885C94.673 79.43 94.9327 80.0361 95.0779 80.674C94.927 81.2849 94.9644 81.6368 94.9843 82.2681C94.8389 81.2054 94.539 79.9507 94.311 78.885Z" fill="var(--fill-0, white)"/>
<path id="Vector_31" d="M97.966 55.2789C98.1707 56.0146 98.0423 57.3767 97.9685 58.1751C97.876 57.5963 97.6502 56.4352 97.6939 55.8982L97.7634 55.9854L97.8835 55.9763L97.966 55.2789Z" fill="var(--fill-0, white)"/>
<path id="Vector_32" d="M79.6885 33.7752C79.4389 33.7705 79.0807 33.6953 78.824 33.6522L78.7759 33.5261C79.6771 33.2851 80.2263 33.36 81.1372 33.5493C80.6724 33.5449 79.9184 33.4576 79.5818 33.6638L79.6885 33.7752Z" fill="var(--fill-0, white)"/>
<path id="Vector_33" d="M38.4045 77.7526L38.5262 78.9073C38.5154 79.2094 38.4231 79.5724 38.2051 79.7868C38.0682 79.1142 38.266 78.4311 38.4045 77.7526Z" fill="var(--fill-0, white)"/>
<path id="Vector_34" d="M47.301 64.6474C47.2818 63.7824 47.2162 62.5436 47.3444 61.7226L47.4559 62.4878L47.6048 62.4929L47.6486 62.452C47.6546 62.9536 47.4028 64.1072 47.301 64.6474Z" fill="var(--fill-0, white)"/>
<path id="Vector_35" d="M93.9894 69.136C93.9201 68.6969 93.6218 68.1564 93.426 67.7265L93.6802 67.6715C94.0156 67.8983 94.0905 68.2797 94.2192 68.6671L93.9894 69.136Z" fill="var(--fill-0, white)"/>
<path id="Vector_36" d="M37.3617 75.4455C37.4427 75.1287 37.4836 74.8549 37.6665 74.5879L37.7936 74.6396C37.9048 75.3073 37.7194 75.3898 37.688 75.951L37.3617 75.4455Z" fill="var(--fill-0, white)"/>
<path id="Vector_37" d="M62.4892 61.1501C62.0952 61.3612 61.5706 61.7216 61.1661 61.6165L61.2451 61.3717L61.8081 61.0951L62.4892 61.1501Z" fill="var(--fill-0, white)"/>
<path id="Vector_38" d="M100.528 55.8326C100.925 56.1982 100.834 56.8426 100.83 57.3432L100.624 57.1893C100.448 56.8032 100.514 56.279 100.528 55.8326Z" fill="var(--fill-0, white)"/>
<path id="Vector_39" d="M65.8397 51.6608C66.0346 51.2824 66.0544 51.0608 66.3703 50.9227C66.434 51.3516 66.2847 51.5735 66.1031 51.9606L65.8397 51.6608Z" fill="var(--fill-0, white)"/>
</g>
<defs>
<clipPath id="clip0_0_5">
<rect width="142" height="142" fill="white"/>
</clipPath>
</defs>
</svg>
